<svg width="124" height="60" viewBox="0 0 124 60" fill="none" xmlns="http://www.w3.org/2000/svg">
<g clip-path="url(#clip0_223_2082)">
<path d="M85.5842 22.5701C85.5404 22.4786 85.5842 22.3633 85.5842 22.2281V21.9776C85.6044 21.4986 85.5885 21.0187 85.5364 20.5421C85.3518 18.8156 84.9606 17.1174 84.3713 15.4841C83.7405 13.7428 82.9105 12.0803 81.898 10.5295C80.6688 8.65023 79.1786 6.95524 77.4723 5.49538C75.7223 3.99724 73.7607 2.76584 71.6508 1.84106C70.1003 1.15539 68.4767 0.648445 66.8115 0.330029C66.0882 0.186479 65.3563 0.0895224 64.6205 0.0397529C64.2395 0.0482691 63.8583 0.0323297 63.4793 -0.00796509H63.4276C63.2588 0.0159124 63.0875 0.0159124 62.9186 -0.00796509H61.4593C61.2891 0.0159193 61.1165 0.0159193 60.9463 -0.00796509H60.8509C60.7793 0.0397518 60.7038 0.0158954 60.6083 0.0158954C60 0.0636123 59.4154 0.0636104 58.807 0.163021C54.2868 0.814811 50.0556 2.77325 46.6336 5.79756C43.2115 8.82188 40.7478 12.7802 39.5453 17.186C39.0827 18.7345 38.8456 20.3416 38.8415 21.9577V22.1764C38.8356 22.2585 38.8356 22.3409 38.8415 22.4229C38.8416 22.4626 38.8335 22.5019 38.8176 22.5383V24.1089C38.8454 24.2534 38.8454 24.4019 38.8176 24.5463V24.6696C38.8521 24.7456 38.8619 24.8304 38.8455 24.9122C38.837 25.2945 38.853 25.677 38.8932 26.0574C39.1618 28.4807 39.8184 30.845 40.8376 33.0598C42.1753 35.9726 44.0956 38.5805 46.4802 40.7224C48.0105 42.0936 49.7104 43.2629 51.5382 44.2017C51.6067 44.2427 51.6802 44.2748 51.7569 44.2972C51.8801 44.3449 51.9517 44.2972 51.9278 44.15C51.9073 44.0267 51.8753 43.9056 51.8324 43.7882C51.2479 41.8397 50.8105 39.8714 51.0053 37.8037C51.0511 37.2588 51.1743 36.7233 51.3711 36.2131C51.8102 35.0726 52.5394 34.0666 53.4866 33.2944C54.0587 32.7915 54.7559 32.4521 55.5047 32.3121C56.2535 32.1722 57.0262 32.2368 57.7413 32.4992C58.3918 32.7275 59.0064 33.0476 59.5665 33.4495C59.6381 33.4972 59.7375 33.5966 59.8329 33.545C59.9284 33.4933 59.9324 33.3501 59.9324 33.2547C59.9324 32.9883 59.8807 32.7179 59.8807 32.4594C59.8364 31.5257 59.7315 30.5959 59.5665 29.6759C59.4938 29.225 59.3459 28.7895 59.1291 28.3876C58.9343 28.0933 58.811 27.8269 59.0297 27.5088V27.4849C59.0774 27.3139 59.0058 27.2423 58.8349 27.2662C58.6639 27.2901 58.5684 27.3418 58.4372 27.3656C57.47 27.5757 56.4843 27.689 55.4947 27.7036C55.0727 27.7146 54.6523 27.6486 54.254 27.5088C54.01 27.4359 53.8044 27.2699 53.6816 27.0467C53.5589 26.8235 53.5288 26.561 53.5979 26.3158C53.6405 26.1481 53.6977 25.9844 53.7689 25.8268C53.7977 25.7859 53.818 25.7396 53.8284 25.6907C53.8388 25.6418 53.8392 25.5912 53.8295 25.5422C53.8199 25.4931 53.8003 25.4465 53.7721 25.4052C53.744 25.3639 53.7077 25.3288 53.6655 25.3019C53.6138 25.278 53.59 25.2303 53.5423 25.1826C53.4945 25.1349 53.4945 25.0354 53.59 24.9877C53.6854 24.94 53.7848 24.9122 53.8087 24.7929C53.8001 24.7708 53.7873 24.7507 53.7709 24.7336C53.7545 24.7166 53.7349 24.7029 53.7132 24.6935C53.5658 24.6722 53.4153 24.6886 53.2758 24.7412C53.2456 24.7508 53.2136 24.754 53.182 24.7507C53.1505 24.7474 53.1199 24.7376 53.0922 24.7219C53.0646 24.7063 53.0405 24.685 53.0215 24.6596C53.0025 24.6342 52.9889 24.6051 52.9816 24.5742C52.9339 24.4271 53.0055 24.3555 53.1287 24.3038C53.2667 24.2347 53.4141 24.1865 53.5661 24.1606C53.7821 24.1061 54.0012 24.065 54.2222 24.0374C54.3932 24.0135 54.4409 23.9181 54.3455 23.7948C54.1753 23.5318 53.9281 23.3277 53.6377 23.2103C53.5243 23.1596 53.3985 23.143 53.2758 23.1626C53.2175 23.1777 53.1641 23.2081 53.1215 23.2508C53.0788 23.2934 53.0484 23.3467 53.0333 23.4051C52.8948 23.2898 52.7621 23.1677 52.6356 23.0393C52.6126 23.0255 52.5935 23.006 52.5802 22.9827C52.5669 22.9593 52.56 22.9329 52.56 22.9061C52.56 22.8792 52.5669 22.8528 52.5802 22.8295C52.5935 22.8061 52.6126 22.7866 52.6356 22.7729C52.8543 22.5303 53.0333 22.2639 53.2679 21.9776C53.344 21.9064 53.3892 21.8082 53.3936 21.7041C53.3981 21.6 53.3615 21.4983 53.2917 21.4209C53.1921 21.2766 53.0775 21.1433 52.9498 21.0233C52.6834 20.729 52.6834 20.6256 52.9498 20.3393C53.1208 20.1484 53.3156 19.9775 53.4866 19.8065C53.6929 19.6247 53.8868 19.4294 54.0671 19.2219C54.1904 19.1026 54.3614 18.9794 54.2898 18.8243C54.2183 18.6692 54.0194 18.705 53.8922 18.6533C53.9374 18.6485 53.9808 18.633 54.0188 18.6082C54.0569 18.5833 54.0884 18.5497 54.1109 18.5102C54.1586 18.4346 54.2063 18.4346 54.2779 18.4585C54.5721 18.534 54.6199 18.4863 54.5483 18.192C54.4443 17.6292 54.2381 17.0901 53.9399 16.6015C53.9034 16.5487 53.8778 16.4891 53.8648 16.4263C53.8519 16.3634 53.8517 16.2986 53.8643 16.2357C53.9271 15.7595 54.05 15.2931 54.2302 14.8479C54.5144 14.1389 55.0635 13.5684 55.7611 13.2573C55.8294 13.232 55.8878 13.1856 55.9278 13.1248C55.9679 13.064 55.9875 12.992 55.9838 12.9193C55.9764 12.6534 55.9923 12.3872 56.0315 12.1241C56.094 11.3825 56.4019 10.6829 56.9063 10.1358C56.9599 10.0741 57.0277 10.0262 57.1039 9.99642C57.1801 9.96663 57.2624 9.9558 57.3437 9.96486C57.4965 9.98879 57.6521 9.98879 57.805 9.96486C57.8805 9.941 58.0237 9.98872 58.0754 9.86545C58.0799 9.84181 58.0799 9.81752 58.0754 9.79388C58.0608 9.76933 58.0403 9.74882 58.0157 9.73423L57.9203 9.69447C57.8266 9.64456 57.728 9.60458 57.626 9.57517C57.5487 9.56156 57.4799 9.51802 57.4345 9.45401C57.3891 9.38999 57.3708 9.31065 57.3835 9.2332V6.31452C57.3914 5.99831 57.3754 5.68195 57.3357 5.36814C57.4258 6.01603 57.6319 6.64238 57.9441 7.21716C58.0677 7.48308 58.2313 7.72848 58.4293 7.94485C58.6378 8.20803 58.9284 8.394 59.2547 8.47324C59.5811 8.55249 59.9245 8.52046 60.2306 8.38225C60.3614 8.34646 60.4851 8.28864 60.5964 8.21127C60.6233 8.18525 60.6554 8.16511 60.6905 8.15212C60.7256 8.13913 60.7631 8.13359 60.8005 8.13583C60.8378 8.13807 60.8744 8.14806 60.9077 8.16515C60.941 8.18224 60.9704 8.20607 60.994 8.23513C61.1764 8.40857 61.381 8.55699 61.6024 8.67651C61.9261 8.85434 62.2974 8.9262 62.664 8.88197C63.0307 8.83775 63.3742 8.67966 63.6463 8.42997C64.1745 7.90365 64.5745 7.26281 64.8154 6.55708C64.8075 6.71369 64.8236 6.87057 64.8631 7.02232C64.9406 7.60919 65.1224 8.17748 65.3999 8.70037C65.4676 8.84929 65.5641 8.98331 65.684 9.09466C65.8038 9.20602 65.9445 9.29249 66.098 9.34907C66.2515 9.40566 66.4147 9.43123 66.5781 9.42431C66.7415 9.41739 66.902 9.37811 67.0501 9.30875C67.3921 9.16163 67.3921 9.16163 67.5392 9.5036C67.5951 9.67866 67.6867 9.84023 67.8083 9.97807C67.9298 10.1159 68.0786 10.227 68.2453 10.3044C68.412 10.3818 68.5929 10.4237 68.7767 10.4275C68.9604 10.4314 69.1429 10.397 69.3127 10.3267C69.5126 10.2495 69.7078 10.1605 69.8972 10.0603C70.0754 9.95894 70.2467 9.84603 70.4102 9.7223C70.1907 10.0648 69.9954 10.4222 69.8257 10.792C69.6785 11.0584 69.5553 11.3248 69.428 11.5872C69.3525 11.6866 69.3047 11.7582 69.1855 11.7582C69.0662 11.7582 68.9906 11.7582 68.9906 11.8576C68.9906 11.957 69.0622 11.9769 69.1338 12.0286C69.1716 12.0576 69.2131 12.0817 69.257 12.1002C69.7374 12.3904 70.165 12.7602 70.5215 13.1937C70.7402 13.488 70.7641 13.488 71.106 13.3408C71.4387 13.1708 71.8115 13.0947 72.1842 13.1206C72.5569 13.1465 72.9155 13.2735 73.2215 13.488C73.6939 13.8457 74.0496 14.3356 74.2434 14.8956C74.2629 14.9586 74.2709 15.0246 74.2673 15.0905C74.3098 15.6686 74.2271 16.2491 74.0247 16.7924C74.0042 16.8271 73.9916 16.866 73.9878 16.9061C73.984 16.9463 73.9891 16.9869 74.0028 17.0248C74.0165 17.0628 74.0384 17.0973 74.0669 17.1259C74.0954 17.1544 74.1299 17.1763 74.1679 17.19C74.3535 17.29 74.5258 17.4129 74.6808 17.5558C75.09 17.894 75.4181 18.3196 75.641 18.8013C75.864 19.283 75.9762 19.8086 75.9692 20.3393C75.9607 21.1297 75.7601 21.9062 75.3847 22.6019C75.1921 23.0098 74.9033 23.3648 74.5431 23.6363C74.1829 23.9079 73.7621 24.0878 73.3169 24.1606C72.5908 24.2695 71.8489 24.1412 71.2015 23.7948C71.0934 23.7358 70.9803 23.6866 70.8635 23.6477C70.7402 23.6 70.6686 23.6477 70.6448 23.7709C70.6218 23.8248 70.6122 23.8835 70.617 23.9419C70.574 24.3946 70.3807 24.8199 70.0679 25.15C69.7552 25.48 69.3409 25.6959 68.8912 25.7631C68.4192 25.8745 67.9277 25.8745 67.4557 25.7631C67.2323 25.6933 66.9933 25.6908 66.7684 25.7558C66.5436 25.8209 66.3428 25.9506 66.1912 26.129C66.1338 26.1788 66.087 26.2397 66.0535 26.308C66.02 26.3763 66.0006 26.4507 65.9964 26.5266C65.9964 26.7692 66.0481 26.9879 66.0481 27.2066C66.0826 27.8154 66.1799 28.419 66.3383 29.0079C66.4443 29.6028 66.7025 30.1602 67.0879 30.6257C67.4732 31.0912 67.9726 31.4489 68.5373 31.6641C68.9747 31.8311 69.3882 32.1015 69.8495 32.2964C68.6419 33.0911 67.3545 33.7575 66.0083 34.2846C64.9292 34.7342 63.7694 34.9575 62.6005 34.9407H62.4812C62.4335 34.9645 62.3341 34.9645 62.3341 35.0401C62.3341 35.1156 62.4057 35.1355 62.4574 35.1594C62.6589 35.251 62.8714 35.3165 63.0896 35.3542C64.1787 35.5923 65.3117 35.5332 66.3702 35.1832C67.9327 34.7189 69.3993 33.9781 70.7005 32.9962C70.9956 32.8018 71.3458 32.7083 71.6985 32.7298C71.8217 32.7339 71.9442 32.7499 72.0644 32.7775C72.7411 32.8372 73.3762 33.1294 73.8617 33.6046C74.4571 34.1843 74.8644 34.9297 75.0308 35.7439C75.3683 37.1111 75.5023 38.5207 75.4284 39.9271C75.3807 40.6349 75.329 41.3148 75.2336 42.0187C75.1858 42.2851 75.1858 42.2851 74.9154 42.2612C71.9585 41.9198 68.9709 42.5522 66.4059 44.0625C64.5403 45.0748 62.8684 46.4089 61.4672 48.0032C60.5548 49.038 59.7858 50.1909 59.1808 51.4308C59.0337 51.7012 58.9382 51.9677 58.815 52.2261C58.7386 52.3989 58.6121 52.5447 58.4519 52.6447C58.2916 52.7446 58.105 52.7941 57.9163 52.7868C57.7869 52.7601 57.6642 52.7077 57.5556 52.6325C57.447 52.5574 57.3546 52.4611 57.284 52.3494C56.6678 51.6108 56.0917 50.8396 55.5583 50.0391C54.4131 48.3372 53.3196 46.5836 52.2499 44.8101C52.1744 44.7107 52.1267 44.5914 52.0074 44.5397C51.9765 44.5466 51.9494 44.5651 51.9318 44.5914C51.9141 44.6294 51.9049 44.6708 51.9049 44.7127C51.9049 44.7546 51.9141 44.796 51.9318 44.834C52.1505 45.5855 52.397 46.3172 52.6396 47.0687C53.2699 49.0128 54.0107 50.9192 54.8584 52.7788C55.3536 53.9194 55.9568 55.0099 56.6598 56.0355C57.0156 56.561 57.441 57.0358 57.9243 57.4471C58.0267 57.5487 58.1548 57.6204 58.2949 57.6548C58.435 57.6891 58.5818 57.6847 58.7195 57.642C58.9213 57.5849 59.1048 57.4767 59.2524 57.3278C59.487 57.0944 59.6841 56.8261 59.8369 56.5326C60.1503 55.8833 60.3788 55.1963 60.5169 54.4887C60.8219 53.3297 61.2637 52.2111 61.8331 51.1565C62.8136 49.2295 64.1887 47.5305 65.8691 46.17C67.6538 44.7326 69.8001 43.8149 72.0723 43.5178C72.3149 43.4701 72.3387 43.4939 72.2672 43.7365C71.9491 44.8061 71.6309 45.8798 71.2691 46.9494C70.8714 48.1901 70.4181 49.4068 69.9529 50.6196C69.5155 51.741 69.0542 52.8822 68.5452 53.9757C68.4935 54.0751 68.4697 54.2461 68.3027 54.2223C68.2255 54.2134 68.153 54.1806 68.0952 54.1286C68.0375 54.0766 67.9974 54.0079 67.9806 53.932C67.9123 53.7629 67.8798 53.5814 67.8852 53.3992C67.8778 52.7393 67.7428 52.0871 67.4875 51.4785C67.2534 50.9091 66.8652 50.4163 66.3665 50.0552C65.8678 49.6942 65.2783 49.4793 64.6643 49.4347C64.4217 49.4108 64.3501 49.5062 64.4694 49.7249C64.5887 49.9437 64.6643 50.0669 64.7637 50.2618C65.3204 51.532 65.712 52.8683 65.9288 54.2382C66.0681 55.2428 66.425 56.205 66.9746 57.0574C67.0636 57.2124 67.1862 57.3454 67.3335 57.4465C67.4808 57.5477 67.6489 57.6145 67.8255 57.642H68.3146C68.4316 57.6251 68.5409 57.5739 68.6287 57.4949C68.7997 57.3 69.0264 57.133 69.1894 56.9143C70.0036 55.8954 70.735 54.8131 71.3764 53.6775C71.7026 53.1712 71.9872 52.6393 72.2274 52.0869C72.5216 51.2917 72.8119 50.4964 73.0784 49.7011C73.7623 47.6811 74.49 45.665 75.1222 43.6212C75.1349 43.5481 75.1747 43.4825 75.2337 43.4375C75.2927 43.3925 75.3665 43.3715 75.4403 43.3786C75.9016 43.4025 76.3867 43.4263 76.852 43.4979C78.0685 43.671 79.2665 43.9559 80.4307 44.3488C80.5262 44.3727 80.6971 44.4721 80.7449 44.3488C80.7926 44.2256 80.6494 44.154 80.55 44.1063C79.5474 43.5283 78.4795 43.0718 77.3689 42.7464C76.8838 42.5992 76.3708 42.476 75.8857 42.3805C75.9115 42.3421 75.9438 42.3084 75.9811 42.2811C77.357 41.2846 78.6221 40.1435 79.7547 38.8773C80.9957 37.5043 82.064 35.9846 82.9359 34.3522C83.9592 32.4302 84.7126 30.3762 85.1746 28.2484C85.3534 27.4308 85.4744 26.6017 85.5364 25.7671C85.5285 25.4019 85.5445 25.0367 85.5842 24.6736V24.5782C85.5603 24.416 85.5603 24.2512 85.5842 24.0891V22.5701ZM46.3052 23.5681C46.2205 23.3649 46.0833 23.1879 45.9076 23.0552C45.8121 23.0075 45.8837 22.9598 45.9314 22.9359C46.0465 22.8222 46.1384 22.6871 46.2018 22.5383C46.3211 22.757 46.3967 22.9757 46.6392 23.0472C46.4924 23.1987 46.3834 23.3826 46.3211 23.5841M47.856 12.3467C47.8043 12.299 47.8321 12.2752 47.856 12.2235C48.023 12.0565 48.194 11.8855 48.3411 11.7145C48.6314 12.1519 48.6314 12.1519 48.9495 12.2473C48.6603 12.4775 48.4685 12.8084 48.4127 13.1738C48.2849 12.8634 48.0955 12.582 47.856 12.3467ZM49.8959 26.1608C49.6915 26.3197 49.5325 26.5295 49.4346 26.7692C49.3576 26.449 49.1686 26.1669 48.9018 25.9739C49.1619 25.827 49.3734 25.6072 49.5102 25.3416C49.5911 25.5877 49.7271 25.8121 49.9078 25.9977C50.0033 26.0733 49.9078 26.121 49.88 26.1449M50.6753 16.1243L50.5321 16.2714C50.4014 16.4211 50.2532 16.5546 50.0907 16.6691C49.8999 16.4504 49.6931 16.2714 49.5102 16.0368C49.4585 15.9851 49.5102 15.9613 49.534 15.9374C49.7269 15.802 49.8985 15.6385 50.043 15.4523C50.1186 15.4046 50.1186 15.4046 50.1424 15.3767L50.214 15.4523C50.3405 15.6518 50.496 15.8313 50.6753 15.9851C50.6861 15.9941 50.6948 16.0053 50.7008 16.018C50.7068 16.0308 50.7099 16.0447 50.7099 16.0587C50.7099 16.0728 50.7068 16.0866 50.7008 16.0994C50.6948 16.1121 50.6861 16.1233 50.6753 16.1323M72.2751 27.0038C72.2274 27.0793 72.1996 27.1509 72.1518 27.2463C72.0866 27.1967 72.0317 27.1347 71.9904 27.0639C71.949 26.9931 71.9221 26.9149 71.911 26.8336C71.8999 26.7524 71.905 26.6698 71.9258 26.5905C71.9467 26.5112 71.9829 26.4368 72.0326 26.3715C72.0564 26.3477 72.0564 26.2761 72.1041 26.2761C72.1518 26.2761 72.4183 26.5902 72.3944 26.6737C72.3443 26.7742 72.3043 26.8794 72.2751 26.9879M75.4125 27.815C75.1925 28.0198 75.033 28.2812 74.9512 28.5705C74.8638 28.2373 74.6863 27.9347 74.4383 27.6957C74.6935 27.5752 74.9058 27.3795 75.0467 27.135C75.1295 27.3448 75.2668 27.5287 75.4443 27.6678C75.5397 27.7434 75.4682 27.7672 75.4205 27.815M75.9771 12.7046C75.7027 12.9314 75.5216 13.2513 75.4682 13.6033C75.3549 13.2057 75.0948 12.866 74.7405 12.6529C74.8836 12.5336 75.0308 12.4104 75.1381 12.2911C75.2776 12.1664 75.3795 12.0052 75.4324 11.8258C75.5592 12.1216 75.7399 12.3913 75.9652 12.6211C75.976 12.6242 75.9855 12.6307 75.9923 12.6397C75.9991 12.6486 76.0027 12.6596 76.0027 12.6708C76.0027 12.682 75.9991 12.693 75.9923 12.7019C75.9855 12.7109 75.976 12.7174 75.9652 12.7205M77.0389 18.0449C76.9872 18.1443 76.9394 18.0688 76.9156 18.0211C76.7511 17.8127 76.5537 17.6327 76.331 17.4882C76.5816 17.3422 76.8039 17.1523 76.9872 16.9276C77.2337 17.365 77.2337 17.365 77.5717 17.5359C77.3655 17.6729 77.1851 17.8452 77.0389 18.0449Z" fill="white"/>
<path d="M85.5881 24.5662C85.5526 24.4903 85.5342 24.4075 85.5342 24.3237C85.5342 24.2399 85.5526 24.157 85.5881 24.0811V24.5662Z" fill="white"/>
<path d="M38.8176 24.1089C38.8472 24.1781 38.8624 24.2525 38.8624 24.3277C38.8624 24.4028 38.8472 24.4772 38.8176 24.5464V24.1089Z" fill="white"/>
<path d="M38.8417 22.1804C38.8417 22.3037 38.8894 22.4508 38.7939 22.578V22.1804H38.8417Z" fill="white"/>
<path d="M85.5883 22.5701C85.5167 22.4508 85.5644 22.3275 85.5405 22.2321C85.5644 22.2082 85.5644 22.2082 85.5883 22.2321V22.5701Z" fill="white"/>
<path d="M85.5882 21.9617H85.5405V22.2281H85.5882V21.9617Z" fill="white"/>
<path d="M38.8417 22.1804H38.7939V21.9617H38.8178C38.8373 22.0329 38.8454 22.1067 38.8417 22.1804Z" fill="white"/>
<path d="M58.0078 9.75412C58.0352 9.75594 58.062 9.76321 58.0866 9.7755C58.1112 9.78779 58.1331 9.80485 58.151 9.8257C57.9969 9.84214 57.8412 9.83409 57.6897 9.80183C57.7891 9.75412 57.9084 9.8257 58.0078 9.75412Z" fill="white"/>
<path d="M53.7253 24.6855C53.8009 24.6378 53.8963 24.6378 53.9918 24.5901C53.944 24.6855 53.8725 24.6855 53.8009 24.7134C53.7293 24.7412 53.7492 24.7134 53.7253 24.6855Z" fill="white"/>
<path d="M51.9518 44.5596C51.9279 44.5079 51.8762 44.4602 51.9279 44.4363C51.9796 44.4125 51.9757 44.4841 51.9995 44.5357C51.9757 44.5079 51.9757 44.5357 51.9518 44.5596Z" fill="white"/>
<path d="M58.0396 16.8799C57.6151 16.7994 57.1831 16.7661 56.7513 16.7804C56.317 16.7981 55.8926 16.9151 55.5106 17.1224C55.3815 17.1783 55.2398 17.1989 55.1001 17.1821C54.9604 17.1654 54.8276 17.1118 54.7154 17.027C54.6759 16.9948 54.6449 16.9534 54.6252 16.9065C54.6055 16.8595 54.5977 16.8085 54.6024 16.7578C54.6071 16.7071 54.6242 16.6583 54.6523 16.6158C54.6803 16.5733 54.7183 16.5383 54.7631 16.514C55.325 16.1989 55.984 16.1039 56.6121 16.2476C57.1444 16.354 57.6543 16.5517 58.1192 16.8321C58.1192 16.9037 58.0953 16.9037 58.0476 16.8799" fill="white"/>
<path d="M55.8406 17.5359C55.8818 17.7652 55.9893 17.9773 56.1497 18.1462C56.3101 18.3151 56.5164 18.4333 56.7432 18.4863C57.1802 18.5357 57.6226 18.477 58.0316 18.3153C57.8671 18.5417 57.6584 18.7323 57.4181 18.8757C57.1778 19.019 56.9109 19.1121 56.6335 19.1493C56.3562 19.1865 56.0742 19.1669 55.8046 19.092C55.535 19.017 55.2835 18.888 55.0652 18.713H55.7451C55.94 18.7368 55.9877 18.6891 55.9161 18.4943C55.7885 18.1941 55.762 17.8605 55.8406 17.5439" fill="white"/>
<path d="M58.0396 16.8798C58.0634 16.856 58.0873 16.856 58.135 16.8321C58.1995 16.8598 58.2577 16.9004 58.306 16.9514C58.1867 16.9276 58.0873 16.9276 58.0396 16.8798Z" fill="white"/>
<path d="M77.4644 44.5556L72.9631 55.793H73.9453L75.0627 52.8504H78.8561L80.0014 55.793H82.1645L77.4644 44.5556ZM75.3211 52.1943L76.9117 48.1821L78.5023 52.1943H75.3211Z" fill="white"/>
<path d="M83.5205 44.7863H87.0993C89.8828 44.7863 91.2586 45.9036 91.2586 47.9952C91.2586 49.5858 90.2367 50.5242 88.3876 50.6236L91.3063 55.7929H89.0557L86.1131 50.2021C88.3041 50.055 89.2942 49.4705 89.2942 47.9157C89.2942 46.2854 88.3479 45.4821 86.4511 45.4821H85.6002V55.7929H83.5563L83.5205 44.7863Z" fill="white"/>
<path d="M94.5867 45.6253H91.6919V44.7982H99.4777V45.6253H96.5829V55.8168H94.5629L94.5867 45.6253Z" fill="white"/>
<path d="M103.052 44.8022H101.032V55.8208H103.052V44.8022Z" fill="white"/>
<path d="M105.947 44.8022H112.755V45.6293H107.987V49.6653H112.417V50.4924H107.987V54.9897H112.755V55.8168H105.947V44.8022Z" fill="white"/>
<path d="M115.089 44.7863H118.716C121.499 44.7863 122.871 45.9036 122.871 47.9952C122.871 49.5858 121.853 50.5242 120.004 50.6236L122.923 55.7929H120.636L117.686 50.2021C119.873 50.055 120.867 49.4705 120.867 47.9157C120.867 46.2854 119.916 45.4821 118.02 45.4821H117.169V55.7929H115.125L115.089 44.7863Z" fill="white"/>
<path d="M73.134 56.6678H73.818L74.7166 58.8588L75.5915 56.6678H76.2237V59.8807H75.6392V57.3L74.5457 60L73.4044 57.3V59.8807H73.134V56.6678Z" fill="white"/>
<path d="M78.0251 56.6678H80.0173V56.9143H78.6335V58.0794H79.9219V58.3219H78.6335V59.6381H80.0173V59.8807H78.0251V56.6678Z" fill="white"/>
<path d="M82.4747 56.6678H81.6794L81.6555 59.8807H82.8723C83.0813 59.9006 83.2922 59.875 83.4904 59.8057C83.6887 59.7364 83.8695 59.625 84.0206 59.4792C84.1717 59.3333 84.2895 59.1565 84.3659 58.9609C84.4422 58.7653 84.4753 58.5555 84.4629 58.3458C84.4629 57.3 83.7352 56.6678 82.4747 56.6678ZM83.4449 59.4195C83.216 59.5883 82.9326 59.6662 82.6496 59.6382H82.2957L82.3196 56.8865H82.5383C83.4131 56.8865 83.8743 57.3756 83.8743 58.2504C83.8893 58.4619 83.8619 58.6743 83.7936 58.8751C83.7253 59.0759 83.6176 59.2609 83.4767 59.4195" fill="white"/>
<path d="M86.6578 56.6678H86.0732V59.8767H86.6578V56.6678Z" fill="white"/>
<path d="M89.8191 59.9523C89.606 59.9503 89.3955 59.9043 89.2009 59.8174C89.0063 59.7304 88.8318 59.6042 88.6881 59.4468C88.5444 59.2893 88.4348 59.1039 88.366 58.9022C88.2972 58.7004 88.2707 58.4867 88.2882 58.2742C88.2764 58.0605 88.3079 57.8465 88.3808 57.6451C88.4536 57.4438 88.5664 57.2593 88.7124 57.1026C88.8583 56.9459 89.0344 56.8203 89.23 56.7332C89.4256 56.6462 89.6368 56.5996 89.8509 56.5962C90.091 56.5846 90.3295 56.6398 90.5401 56.7557C90.7507 56.8715 90.9251 57.0434 91.0438 57.2523L90.849 57.3756C90.7787 57.2016 90.6577 57.0528 90.5017 56.9485C90.3456 56.8442 90.1618 56.7894 89.9742 56.791C89.3419 56.791 88.9284 57.3517 88.9284 58.2742C88.9284 59.1968 89.326 59.6859 89.9503 59.6859C90.1656 59.6857 90.3753 59.6175 90.5495 59.4911C90.7237 59.3648 90.8536 59.1866 90.9206 58.982L91.1154 59.1013C91.0156 59.3594 90.838 59.58 90.6071 59.7325C90.3762 59.885 90.1036 59.9618 89.8271 59.9523" fill="white"/>
<path d="M93.4656 56.5962L92.1533 59.8807H92.4436L92.7856 59.0298H93.8791L94.225 59.8966H94.8573L93.4656 56.5962ZM92.8572 58.8111L93.3224 57.642L93.7837 58.8111H92.8572Z" fill="white"/>
<path d="M98.2371 59.8807H96.241V56.6678H96.8494V59.6342H98.2371V59.8807Z" fill="white"/>
<path d="M103.319 59.9523C103.105 59.9508 102.895 59.9053 102.7 59.8186C102.504 59.7318 102.329 59.6057 102.185 59.4482C102.041 59.2907 101.931 59.1051 101.862 58.9031C101.793 58.7011 101.767 58.487 101.784 58.2742C101.772 58.0608 101.804 57.8471 101.876 57.6461C101.949 57.445 102.061 57.2606 102.207 57.104C102.352 56.9473 102.528 56.8216 102.723 56.7344C102.918 56.6472 103.129 56.6001 103.343 56.5962C103.583 56.5855 103.821 56.6411 104.031 56.7568C104.242 56.8726 104.416 57.044 104.536 57.2523L104.341 57.3756C104.27 57.2013 104.148 57.0523 103.991 56.9481C103.835 56.8438 103.65 56.7891 103.462 56.791C102.83 56.791 102.416 57.3517 102.416 58.2742C102.416 59.1968 102.814 59.6859 103.438 59.6859C103.654 59.6853 103.864 59.6171 104.039 59.4908C104.213 59.3645 104.344 59.1866 104.412 58.982L104.607 59.1013C104.508 59.3594 104.33 59.58 104.099 59.7325C103.868 59.885 103.595 59.9618 103.319 59.9523Z" fill="white"/>
<path d="M106.114 56.6678H108.11V56.9143H106.723V58.0794H108.011V58.3219H106.723V59.6381H108.11V59.8807H106.114V56.6678Z" fill="white"/>
<path d="M109.765 56.6678H110.298L111.952 58.8826V56.6678H112.246V59.8807H111.952L110.031 57.3239V59.8807H109.741L109.765 56.6678Z" fill="white"/>
<path d="M114.532 56.9143H113.681V56.6678H115.944V56.9143H115.093V59.8807H114.508L114.532 56.9143Z" fill="white"/>
<path d="M117.375 56.6718H118.421C119.217 56.6718 119.638 57.0097 119.638 57.6181C119.638 58.0794 119.348 58.3498 118.811 58.4134L119.674 59.8966H118.994L118.143 58.2663C118.775 58.2186 119.065 58.0476 119.065 57.5863C119.065 57.1251 118.799 56.8825 118.238 56.8825H117.996V59.8966H117.387L117.375 56.6718Z" fill="white"/>
<path d="M121.245 56.6678H123.241V56.9143H121.853V58.0794H123.141V58.3219H121.853V59.6381H123.241V59.8807H121.245V56.6678Z" fill="white"/>
<path d="M26.777 43.5377C27.0027 43.5388 27.2234 43.4708 27.4093 43.3428C27.5573 43.2555 27.6799 43.1311 27.7649 42.9819C27.85 42.8326 27.8947 42.6637 27.8944 42.4919V42.4004C27.8964 42.2568 27.8696 42.1142 27.8156 41.981C27.7617 41.8478 27.6817 41.7268 27.5803 41.625C27.4781 41.5167 27.3548 41.4305 27.218 41.3717C27.0812 41.3129 26.9339 41.2827 26.785 41.2831C26.6354 41.2781 26.4866 41.3062 26.3492 41.3653C26.2117 41.4244 26.089 41.5131 25.9897 41.625C25.8874 41.7261 25.8067 41.847 25.7527 41.9803C25.6987 42.1137 25.6724 42.2566 25.6755 42.4004C25.6676 42.5478 25.6916 42.6951 25.7458 42.8324C25.8 42.9696 25.8832 43.0935 25.9897 43.1957C26.0841 43.3031 26.2003 43.3892 26.3306 43.4482C26.4609 43.5071 26.6022 43.5377 26.7452 43.5377" fill="white"/>
<path d="M34.2926 44.3648L33.4656 44.3409L36.6268 41.1598L36.5314 41.0643L36.0184 40.5554L35.8991 40.4321L35.4379 39.9708L35.1436 39.6766L29.9743 44.8459V46.4762H34.1097C34.2711 46.4711 34.4318 46.4987 34.5822 46.5575C34.7326 46.6163 34.8695 46.705 34.9845 46.8182C35.1996 47.0144 35.3378 47.2809 35.3742 47.5697C35.4032 47.8564 35.3436 48.1451 35.2032 48.3968C35.1242 48.5377 35.0165 48.6604 34.887 48.757C34.7576 48.8536 34.6093 48.9219 34.4517 48.9575C34.3628 48.9763 34.2721 48.9843 34.1813 48.9814H29.0875C28.9209 48.9835 28.7555 48.9523 28.6011 48.8895C28.4467 48.8267 28.3065 48.7336 28.1886 48.6158C28.0708 48.4979 27.9777 48.3577 27.9149 48.2033C27.8521 48.0489 27.8209 47.8835 27.823 47.7169V44.3369H25.7076V50.4169C25.7097 50.6378 25.6678 50.857 25.5842 51.0615C25.5006 51.2661 25.3771 51.4519 25.2208 51.6081C25.0646 51.7644 24.8788 51.8879 24.6742 51.9715C24.4697 52.0551 24.2505 52.097 24.0295 52.0949V54.2342C24.7148 54.2449 25.3895 54.0646 25.9781 53.7134C26.5666 53.3623 27.0458 52.8542 27.3618 52.246C27.5798 51.8094 27.7275 51.341 27.7992 50.8582C28.2 51.0264 28.6291 51.1168 29.0637 51.1247H33.7081L34.3165 51.1008C34.891 51.0702 35.4482 50.8934 35.9353 50.5872C36.4224 50.281 36.8233 49.8556 37.1 49.3512C37.3784 48.851 37.5201 48.2863 37.5111 47.7139C37.502 47.1415 37.3424 46.5817 37.0483 46.0905C36.7749 45.5853 36.3743 45.1602 35.886 44.8575C35.3978 44.5548 34.8389 44.3849 34.2648 44.3648" fill="white"/>
<path d="M20.7688 38.6705H20.721H20.6972L20.6495 38.6467H20.6017H20.5779L20.5262 38.6228H20.5023L20.4785 38.599L20.4546 38.5751L20.4069 38.5473H20.383L20.3592 38.5234L20.3313 38.4996L20.3075 38.4757L20.2836 38.4518L20.2598 38.428L20.2359 38.3803V38.3564L20.2121 38.3286L20.1882 38.3047V38.257L20.1643 38.2331V38.2093V38.1616V38.1377L20.1405 38.086V38.0622V38.0144L20.1643 37.9906V37.9429V37.919L20.1882 37.8673V37.8435L20.2121 37.7957L20.2359 37.748L20.2598 37.7242L20.2836 37.6725L20.3075 37.6486L20.3313 37.6248L20.383 37.6009L20.4069 37.577L20.4308 37.5532L20.4785 37.5293L20.5023 37.5015H20.554L20.5779 37.4776H20.6256H20.6733H20.721H20.7449H20.7966H20.8443H20.8682L20.9159 37.5015H20.9397L20.9875 37.5293H21.0153L21.063 37.5532L21.0869 37.577L21.1346 37.6009L21.1584 37.6248L21.1823 37.6486L21.2101 37.6963L21.234 37.7242L21.2817 37.7957L21.6237 37.4538L21.572 37.4299L21.5481 37.3822L21.5004 37.3345L21.4766 37.3106L21.4288 37.2589L21.3771 37.2351L21.3294 37.1873L21.2817 37.1635L21.234 37.1396L21.1823 37.1158L21.1346 37.0919L21.063 37.0641L21.0153 37.0402H20.9397L20.892 37.0164H20.8443H20.7688H20.721H20.6733H20.6017L20.5262 37.0402H20.4785L20.4308 37.0641L20.3592 37.0919L20.3075 37.1158L20.2598 37.1396L20.2121 37.1635L20.1405 37.2112L20.0888 37.2351L20.0411 37.2868L19.9934 37.3345L19.9456 37.3822L19.9178 37.4299L19.8701 37.4776L19.8462 37.5293L19.8224 37.577L19.7746 37.6248V37.6725L19.7508 37.748L19.723 37.7957V37.8435L19.6991 37.8912V37.9667V38.0144V38.0622V38.1377V38.1854V38.2331L19.723 38.2809V38.3286L19.7508 38.3803L19.7746 38.428V38.4996L19.8224 38.5473L19.8462 38.5751L19.8701 38.6467L19.8939 38.6705H19.1663V39.1318H21.9378V38.6705H20.8204H20.7688Z" fill="white"/>
<path d="M21.1108 39.6686H20.6973H20.2599H19.8463H19.6038H19.4089V51.1485H19.6276H19.8463H20.2599H20.6973H21.1108H21.3295H21.5244V39.6686H21.3295H21.1108Z" fill="white"/>
<path d="M17.1225 44.3409H15.3928V50.4924C15.3811 50.9171 15.2174 51.3234 14.9315 51.6376C14.7731 51.8159 14.5782 51.9579 14.36 52.0539C14.1418 52.15 13.9054 52.1979 13.667 52.1943V54.3615C14.6852 54.3626 15.6628 53.9618 16.3872 53.2463C17.1117 52.5308 17.5245 51.5583 17.536 50.5401V44.3409H17.1384H17.1225Z" fill="white"/>
<path d="M6.17544 51.4428C6.0294 51.4394 5.88439 51.4679 5.75048 51.5263C5.61658 51.5847 5.49699 51.6715 5.40003 51.7808C5.29527 51.8844 5.21296 52.0085 5.15823 52.1453C5.1035 52.2821 5.07753 52.4287 5.08193 52.576C5.07232 52.7239 5.0959 52.8721 5.15094 53.0097C5.20598 53.1473 5.29108 53.2709 5.40003 53.3713C5.50113 53.4737 5.62204 53.5543 5.75536 53.6083C5.88868 53.6623 6.03162 53.6886 6.17544 53.6855C6.31982 53.6876 6.46315 53.6608 6.59701 53.6066C6.73086 53.5525 6.85252 53.4721 6.95481 53.3702C7.0571 53.2683 7.13795 53.1469 7.19258 53.0132C7.24722 52.8796 7.27453 52.7363 7.27292 52.5919C7.2798 52.4444 7.25497 52.297 7.2001 52.1598C7.14522 52.0226 7.06158 51.8988 6.95481 51.7967C6.85245 51.6889 6.72905 51.6033 6.59225 51.5451C6.45545 51.487 6.30817 51.4576 6.15953 51.4587" fill="white"/>
<path d="M8.63286 51.4428C8.48359 51.437 8.33489 51.4644 8.19741 51.5228C8.05993 51.5812 7.93706 51.6693 7.83758 51.7808C7.63819 51.9979 7.52628 52.2812 7.52344 52.576C7.51305 52.7236 7.53587 52.8717 7.59023 53.0093C7.6446 53.147 7.72912 53.2707 7.83758 53.3713C8.05475 53.5707 8.33806 53.6826 8.63286 53.6855C8.77984 53.6901 8.92622 53.6647 9.06299 53.6106C9.19976 53.5566 9.32403 53.4752 9.42814 53.3713C9.53238 53.2675 9.61409 53.1433 9.66814 53.0064C9.72219 52.8696 9.74743 52.7231 9.74228 52.576C9.74994 52.4287 9.72584 52.2815 9.67165 52.1443C9.61745 52.007 9.53441 51.8831 9.42814 51.7808C9.32732 51.671 9.2042 51.5841 9.06704 51.5258C8.92988 51.4675 8.78185 51.4392 8.63286 51.4428Z" fill="white"/>
<path d="M10.116 43.7564C10.2633 43.7603 10.4097 43.7341 10.5465 43.6794C10.6832 43.6247 10.8074 43.5427 10.9113 43.4383C11.0161 43.3349 11.0982 43.2107 11.1523 43.0738C11.2064 42.9368 11.2313 42.7901 11.2254 42.643C11.2333 42.4956 11.2094 42.3483 11.1552 42.2111C11.101 42.0738 11.0178 41.9499 10.9113 41.8477C10.6984 41.6382 10.4146 41.5161 10.116 41.5057C9.9672 41.5058 9.81995 41.5362 9.68323 41.595C9.54652 41.6538 9.42318 41.7398 9.32074 41.8477C9.2161 41.9512 9.13414 42.0754 9.08006 42.2123C9.02598 42.3492 9.00096 42.4959 9.0066 42.643C8.9962 42.7906 9.01902 42.9387 9.07339 43.0763C9.12775 43.2139 9.21227 43.3376 9.32074 43.4383C9.53401 43.6443 9.81952 43.7585 10.116 43.7564Z" fill="white"/>
<path d="M12.4502 41.5177C12.3006 41.5121 12.1516 41.54 12.0141 41.5991C11.8765 41.6583 11.7539 41.7472 11.6549 41.8596C11.5496 41.9628 11.4669 42.0868 11.4121 42.2238C11.3573 42.3607 11.3317 42.5075 11.3368 42.6549C11.3272 42.8028 11.3508 42.951 11.4058 43.0886C11.4609 43.2262 11.546 43.3497 11.6549 43.4502C11.7581 43.5555 11.8821 43.6382 12.0191 43.693C12.156 43.7478 12.3028 43.7734 12.4502 43.7683C12.5974 43.7722 12.7439 43.746 12.8807 43.6913C13.0174 43.6366 13.1416 43.5546 13.2455 43.4502C13.3506 43.3468 13.4332 43.2228 13.488 43.0859C13.5427 42.949 13.5685 42.8023 13.5636 42.6549C13.571 42.5073 13.5464 42.3597 13.4915 42.2225C13.4366 42.0852 13.3527 41.9614 13.2455 41.8596C13.1464 41.7475 13.0237 41.6586 12.8862 41.5995C12.7487 41.5404 12.5998 41.5124 12.4502 41.5177Z" fill="white"/>
<path d="M12.5256 44.3886H10.772V47.7686C10.7751 47.935 10.7446 48.1003 10.6825 48.2547C10.6203 48.4091 10.5277 48.5494 10.4102 48.6672C10.3025 48.7806 10.1733 48.8713 10.0301 48.9341C9.88685 48.9968 9.73253 49.0302 9.57619 49.0325C9.41985 49.0347 9.26466 49.0056 9.11971 48.947C8.97476 48.8884 8.84299 48.8014 8.73215 48.6911C8.51566 48.4851 8.37547 48.2117 8.33451 47.9157V44.3886H6.3145L6.29063 47.8401V47.8918C6.257 48.1958 6.116 48.4778 5.89299 48.6871C5.67769 48.8899 5.3935 49.0036 5.09771 49.0052C4.93106 49.0074 4.76568 48.9761 4.6113 48.9133C4.45692 48.8505 4.31667 48.7575 4.19882 48.6396C4.08097 48.5218 3.9879 48.3815 3.92511 48.2271C3.86232 48.0728 3.83108 47.9074 3.83322 47.7407V44.3608H1.69391V50.4407C1.69712 50.6644 1.65311 50.8863 1.56472 51.0919C1.47633 51.2975 1.34556 51.4821 1.18096 51.6336C0.862688 51.9461 0.434036 52.1204 -0.0119629 52.1188V54.2819C0.673308 54.2927 1.34802 54.1123 1.93657 53.7612C2.52512 53.41 3.00426 52.9019 3.32027 52.2937C3.53716 51.8566 3.68472 51.3884 3.75766 50.9059C4.14829 51.0772 4.57193 51.16 4.9983 51.1485H5.04603C5.88903 51.1347 6.69626 50.8055 7.3086 50.226C7.91166 50.7927 8.70034 51.1206 9.52743 51.1485H9.60299C10.0352 51.1451 10.4624 51.0549 10.8592 50.8835C11.2561 50.7121 11.6145 50.4628 11.9133 50.1504C12.233 49.8414 12.4864 49.4705 12.658 49.0603C12.8296 48.6501 12.9158 48.2092 12.9114 47.7646V44.3886H12.5137H12.5256Z" fill="white"/>
<path d="M47.8402 44.3608C47.1885 44.3548 46.5509 44.5507 46.015 44.9215C45.5468 45.2197 45.1611 45.631 44.8936 46.1174C44.6261 46.6039 44.4852 47.1498 44.4841 47.7049C44.479 48.163 44.5613 48.6178 44.7266 49.045H43.3866C43.2388 49.0429 43.0936 49.0057 42.963 48.9366C42.8323 48.8675 42.7199 48.7684 42.6351 48.6474C42.5155 48.5308 42.4213 48.3908 42.3583 48.2362C42.2954 48.0816 42.2651 47.9156 42.2692 47.7487V44.3648H40.1458V50.4487C40.1469 50.6693 40.1042 50.888 40.0202 51.0921C39.9363 51.2961 39.8127 51.4815 39.6567 51.6376C39.5006 51.7936 39.3152 51.9172 39.1112 52.0011C38.9071 52.0851 38.6884 52.1278 38.4678 52.1267V54.2422C39.153 54.2524 39.8275 54.0719 40.416 53.7208C41.0044 53.3697 41.4836 52.8618 41.8 52.254C42.0169 51.8182 42.1644 51.3514 42.2374 50.8702C42.5882 51.0332 42.9682 51.1239 43.3548 51.1366H50.6992V44.3767L47.8402 44.3608ZM47.8402 44.7982H48.035L47.1801 44.8737C47.3968 44.8253 47.6181 44.8 47.8402 44.7982ZM48.6156 49.0331H47.701C47.5481 49.0255 47.3985 48.9862 47.2616 48.9177C47.1247 48.8493 47.0035 48.7532 46.9057 48.6354C46.723 48.465 46.6005 48.2399 46.5568 47.994C46.5131 47.748 46.5504 47.4945 46.6632 47.2715C46.7478 47.0316 46.9068 46.8251 47.1172 46.682C47.3275 46.5389 47.578 46.4668 47.8322 46.4762H48.5838L48.6156 49.0331Z" fill="white"/>
<path d="M38.6706 58.155C38.6696 58.1992 38.6527 58.2416 38.6229 58.2742C38.5892 58.3055 38.5455 58.3238 38.4996 58.3259C38.4546 58.3249 38.4117 58.3066 38.3798 58.2747C38.348 58.2429 38.3296 58.2 38.3286 58.155C38.3308 58.1091 38.3491 58.0654 38.3803 58.0317C38.413 58.0019 38.4554 57.9849 38.4996 57.984C38.5224 57.9828 38.5451 57.9865 38.5664 57.9947C38.5876 58.0028 38.6069 58.0154 38.623 58.0315C38.6392 58.0476 38.6517 58.0669 38.6599 58.0882C38.6681 58.1095 38.6717 58.1322 38.6706 58.155Z" fill="white"/>
<path d="M24.3675 58.1549C24.3666 58.1992 24.3496 58.2415 24.3198 58.2742C24.2877 58.3055 24.2453 58.3239 24.2005 58.3259C24.1545 58.3245 24.1106 58.3061 24.0773 58.2742C24.0474 58.2415 24.0305 58.1992 24.0295 58.1549C24.0306 58.1095 24.0475 58.0659 24.0773 58.0317C24.111 58.0009 24.1549 57.9839 24.2005 57.9839C24.2447 57.9849 24.2871 58.0019 24.3198 58.0317C24.3496 58.0659 24.3665 58.1095 24.3675 58.1549Z" fill="white"/>
<path d="M44.1899 55.8208C44.2188 55.8203 44.2474 55.8256 44.2742 55.8364C44.301 55.8472 44.3253 55.8632 44.3457 55.8837C44.3662 55.9041 44.3823 55.9284 44.3931 55.9552C44.4039 55.982 44.4091 56.0106 44.4086 56.0395C44.4086 56.0975 44.3856 56.1531 44.3445 56.1942C44.3035 56.2352 44.2479 56.2582 44.1899 56.2582C44.1319 56.2582 44.0763 56.2352 44.0353 56.1942C43.9942 56.1531 43.9712 56.0975 43.9712 56.0395C43.9712 55.9815 43.9942 55.9259 44.0353 55.8849C44.0763 55.8438 44.1319 55.8208 44.1899 55.8208Z" fill="white"/>
<path d="M41.8557 56.5962H41.3706V57.984C41.3684 58.1195 41.3442 58.2538 41.299 58.3816C41.2103 58.5517 41.0715 58.6905 40.9014 58.7792C40.7385 58.8608 40.5539 58.8882 40.3743 58.8574C40.1948 58.8267 40.0298 58.7394 39.9033 58.6082C39.7944 58.4989 39.7186 58.3611 39.6846 58.2106C39.6568 58.0571 39.665 57.8992 39.7085 57.7493C39.7683 57.5934 39.8685 57.4562 39.9988 57.3517C40.1466 57.2581 40.3139 57.1996 40.4878 57.1807V56.5723C40.3308 56.5699 40.1746 56.5955 40.0266 56.6479C39.8131 56.7212 39.6207 56.8454 39.4659 57.0097C39.3158 57.1767 39.2028 57.3736 39.1342 57.5875C39.0657 57.8013 39.0432 58.0272 39.0683 58.2504C39.1336 58.6306 39.3429 58.971 39.6528 59.2007C39.8844 59.358 40.1503 59.4575 40.4282 59.491C40.6942 59.5048 40.959 59.4468 41.1948 59.3229C41.4306 59.1991 41.6287 59.014 41.7682 58.7872C41.9122 58.5469 41.9878 58.272 41.987 57.9919V56.5564L41.8557 56.5962Z" fill="white"/>
<path d="M44.1897 56.3179C44.4084 56.3179 44.5078 56.2224 44.5078 56.0037C44.5078 55.785 44.4084 55.6618 44.1897 55.6618C44.1437 55.6566 44.0971 55.6619 44.0535 55.6774C44.0099 55.6928 43.9703 55.7179 43.9378 55.7508C43.9053 55.7837 43.8806 55.8236 43.8657 55.8674C43.8508 55.9112 43.846 55.9578 43.8517 56.0037C43.8756 56.2224 43.971 56.3179 44.1897 56.3179Z" fill="white"/>
<path d="M44.4641 55.8089C44.4357 55.779 44.402 55.7547 44.3647 55.7373C44.3188 55.7206 44.2703 55.7126 44.2215 55.7134C44.1727 55.7126 44.1242 55.7206 44.0784 55.7373C44.005 55.7752 43.9452 55.8349 43.9074 55.9083C43.8907 55.9541 43.8826 56.0027 43.8835 56.0514C43.8796 56.1214 43.9007 56.1905 43.9432 56.2463C43.9525 56.264 43.9646 56.2801 43.979 56.294C44.0095 56.3275 44.0471 56.3538 44.0891 56.371C44.131 56.3882 44.1763 56.3958 44.2215 56.3934C44.2666 56.3939 44.3113 56.3855 44.353 56.3685C44.3947 56.3515 44.4327 56.3263 44.4645 56.2944C44.4964 56.2626 44.5216 56.2247 44.5386 56.1829C44.5555 56.1412 44.564 56.0965 44.5635 56.0514C44.568 55.9777 44.5438 55.905 44.4959 55.8486M44.0664 55.9202C44.0664 55.9202 44.0664 55.9202 44.0903 55.9202C44.1056 55.9023 44.1245 55.8878 44.1457 55.8775C44.1669 55.8673 44.19 55.8615 44.2136 55.8606C44.242 55.8624 44.2697 55.87 44.295 55.883C44.3203 55.896 44.3427 55.9141 44.3607 55.9361C44.382 55.9559 44.3983 55.9805 44.4084 56.0077C44.412 56.0207 44.412 56.0345 44.4084 56.0475V56.0713C44.397 56.1185 44.3721 56.1613 44.3368 56.1946C44.3173 56.2128 44.294 56.2265 44.2686 56.2348C44.2432 56.243 44.2162 56.2456 44.1897 56.2423C44.1379 56.2368 44.0878 56.2206 44.0426 56.1946C44.0244 56.175 44.0107 56.1517 44.0024 56.1263C43.9942 56.1009 43.9916 56.074 43.9949 56.0475C43.9918 56.0105 43.9986 55.9735 44.0148 55.9401V55.9162" fill="white"/>
<path d="M48.4007 56.5962H47.9116V57.6181C47.912 57.6872 47.8912 57.7546 47.8521 57.8115C47.813 57.8684 47.7575 57.9119 47.6929 57.9363C47.6358 57.9695 47.5693 57.9829 47.5038 57.9742C47.4383 57.9656 47.3776 57.9354 47.3311 57.8885C47.2873 57.8539 47.2531 57.8088 47.2315 57.7573C47.2099 57.7058 47.2018 57.6498 47.2078 57.5943V56.5962H46.5994V57.6181C46.6012 57.6755 46.5887 57.7325 46.563 57.7839C46.5374 57.8352 46.4993 57.8794 46.4523 57.9124C46.4097 57.9491 46.3577 57.9731 46.3021 57.9816C46.2465 57.99 46.1897 57.9826 46.1381 57.9601C46.0595 57.9373 45.9906 57.8889 45.9424 57.8227C45.8942 57.7565 45.8693 57.6762 45.8717 57.5943V56.5962H45.2633V57.5943C45.2636 57.645 45.2526 57.6952 45.2313 57.7412C45.21 57.7873 45.1789 57.8281 45.14 57.8607C45.074 57.9261 44.9892 57.9692 44.8975 57.984C44.8526 57.9866 44.8076 57.9795 44.7657 57.963C44.7238 57.9465 44.686 57.9211 44.6549 57.8885C44.6182 57.8584 44.5883 57.8209 44.567 57.7784C44.5458 57.7359 44.5337 57.6894 44.5317 57.642V56.6201H43.9233V57.6659C43.921 57.7129 43.9092 57.7589 43.8887 57.8013C43.8682 57.8436 43.8394 57.8814 43.804 57.9124C43.7408 57.963 43.6653 57.9959 43.5853 58.0078C43.5383 58.0055 43.4922 57.9938 43.4498 57.9733C43.4075 57.9528 43.3697 57.924 43.3387 57.8885C43.2657 57.8171 43.223 57.7203 43.2194 57.6181V55.2323H42.5315V57.6181C42.5305 57.7492 42.5554 57.8791 42.605 58.0004C42.6545 58.1217 42.7276 58.232 42.8201 58.3248C42.9126 58.4177 43.0225 58.4912 43.1437 58.5412C43.2648 58.5913 43.3946 58.6168 43.5256 58.6162C43.6436 58.6172 43.7605 58.594 43.8692 58.5482C43.9779 58.5024 44.0762 58.4349 44.1579 58.3498C44.3368 58.518 44.5724 58.6131 44.818 58.6162C45.0031 58.4452 45.2459 58.3502 45.4979 58.3502C45.75 58.3502 45.9928 58.4452 46.1779 58.6162C46.4301 58.6169 46.6732 58.5217 46.8579 58.3498C47.0056 58.4869 47.1941 58.5721 47.3947 58.5924C47.5755 58.6177 47.7598 58.5929 47.9275 58.5208C48.0896 58.4465 48.2275 58.328 48.3252 58.1788C48.4468 58.0181 48.5073 57.8194 48.4961 57.6181V56.6201L48.4007 56.5962Z" fill="white"/>
<path d="M49.5183 54.771H49.4944H49.4705H49.4467H49.4228V54.7472H49.399H49.3751V54.7233H49.3473V54.6995H49.3234V54.6756V54.6517H49.2996V54.6279V54.6001V54.5762V54.5523V54.5285H49.3234V54.5046V54.4808H49.3473L49.3751 54.4569L49.399 54.433H49.4228H49.4467V54.4092H49.4705H49.4944H49.5183V54.433H49.5421H49.566L49.5938 54.4569H49.6177V54.4808H49.6415V54.5046L49.737 54.4092L49.7131 54.3813L49.6892 54.3575L49.6654 54.3336H49.6415L49.6177 54.3098H49.5938L49.566 54.2859H49.5421H49.5183H49.4944H49.4705H49.4467H49.4228H49.399L49.3751 54.3098H49.3473L49.3234 54.3336H49.2996V54.3575H49.2757L49.2518 54.3813L49.228 54.4092L49.2041 54.433V54.4569L49.1803 54.4808V54.5046V54.5285V54.5523V54.5762V54.6001V54.6279V54.6517V54.6756V54.6995L49.2041 54.7233V54.7472L49.228 54.771H49.0093V54.9182H49.8364V54.771H49.5183Z" fill="white"/>
<path d="M49.5938 55.2084H49.4705H49.3472H49.2041H49.1524H49.0808V58.5924H49.1524H49.2041H49.3472H49.4705H49.5938H49.6653H49.7131V55.2084H49.6653H49.5938Z" fill="white"/>
<path d="M40.2014 58.0317C40.2014 58.0794 40.2014 58.1072 40.2253 58.1311C40.2491 58.1549 40.2531 58.2265 40.3008 58.2742C40.3655 58.3379 40.4526 58.3735 40.5434 58.3735C40.6341 58.3735 40.7212 58.3379 40.7859 58.2742C40.8068 58.2563 40.8238 58.2344 40.8361 58.2099C40.8484 58.1853 40.8557 58.1585 40.8575 58.1311C40.8558 58.1172 40.8574 58.1031 40.8622 58.0899C40.8671 58.0768 40.875 58.065 40.8853 58.0555C40.8865 58.0105 40.8784 57.9657 40.8615 57.9239C40.8447 57.8822 40.8195 57.8443 40.7874 57.8126C40.7554 57.781 40.7172 57.7562 40.6752 57.7398C40.6333 57.7235 40.5884 57.7159 40.5434 57.7175C40.5002 57.7154 40.4571 57.7219 40.4164 57.7365C40.3758 57.7512 40.3385 57.7738 40.3067 57.8031C40.2749 57.8323 40.2492 57.8676 40.2311 57.9068C40.213 57.946 40.2029 57.9885 40.2014 58.0317Z" fill="white"/>
<path d="M35.8235 58.7037C35.7816 58.7002 35.7395 58.7076 35.7013 58.725C35.663 58.7424 35.6298 58.7693 35.6048 58.8031C35.5535 58.8659 35.5205 58.9415 35.5094 59.0218C35.5072 59.0632 35.5147 59.1045 35.5313 59.1424C35.5478 59.1804 35.573 59.214 35.6048 59.2405C35.633 59.2703 35.6669 59.294 35.7045 59.3104C35.7421 59.3268 35.7826 59.3355 35.8235 59.3359C35.8649 59.3385 35.9064 59.3311 35.9444 59.3145C35.9824 59.2979 36.0159 59.2726 36.0422 59.2405C36.0735 59.2133 36.0985 59.1797 36.1156 59.1419C36.1328 59.1042 36.1417 59.0633 36.1417 59.0218C36.144 58.98 36.1362 58.9383 36.1189 58.9002C36.1016 58.8621 36.0753 58.8288 36.0422 58.8031C36.0178 58.7687 35.9847 58.7413 35.9463 58.7239C35.9079 58.7064 35.8655 58.6994 35.8235 58.7037Z" fill="white"/>
<path d="M37.1157 57.8607C37.0846 57.8605 37.0543 57.8513 37.0282 57.8344C37.0021 57.8175 36.9814 57.7935 36.9686 57.7653C36.9447 57.7175 36.897 57.642 36.8692 57.5943C36.8413 57.5466 36.7499 57.3756 36.7021 57.2801C36.6499 57.1742 36.5844 57.0753 36.5073 56.9859C36.4094 56.8276 36.2671 56.7017 36.0981 56.6239C35.929 56.5461 35.7408 56.5199 35.5569 56.5485C35.4158 56.5535 35.2785 56.5961 35.1593 56.6717C35.0432 56.7462 34.9376 56.8358 34.8452 56.9382L34.8929 56.9859L34.9406 57.0336L35.04 57.133L35.1354 57.2284L35.2587 57.3517L35.3064 57.3994C35.3241 57.3315 35.3655 57.2721 35.4231 57.232C35.4807 57.1919 35.5507 57.1737 35.6206 57.1807C35.7669 57.1779 35.9089 57.2304 36.0182 57.3278C36.0421 57.3517 36.0659 57.3756 36.0659 57.3994C36.1167 57.4577 36.1583 57.5234 36.1892 57.5943C36.2369 57.6937 36.2846 57.7891 36.3363 57.8845H32.686C32.645 57.8841 32.6045 57.8754 32.5669 57.859C32.5294 57.8426 32.4955 57.8188 32.4673 57.7891C32.4005 57.7346 32.3576 57.6561 32.348 57.5704V55.2124H31.7157V57.5982C31.7158 57.6422 31.7045 57.6855 31.6829 57.7239C31.6613 57.7622 31.6302 57.7943 31.5925 57.817C31.5627 57.843 31.528 57.8627 31.4904 57.875C31.4528 57.8873 31.4131 57.8919 31.3738 57.8885C31.3401 57.8921 31.3063 57.8836 31.2783 57.8647C31.223 57.85 31.1718 57.8226 31.129 57.7846C31.0862 57.7467 31.0529 57.6992 31.0318 57.646C30.9626 57.3878 30.8252 57.1529 30.6341 56.966C30.4499 56.7756 30.2108 56.6477 29.9502 56.6002C29.8548 56.5804 29.7573 56.5724 29.6599 56.5763H29.1748V57.1847H29.6599C29.7589 57.1837 29.857 57.2025 29.9485 57.2401C30.04 57.2776 30.1231 57.3332 30.1928 57.4034C30.3383 57.5389 30.4337 57.7197 30.4632 57.9164H29.2106V58.5208H31L31.0238 58.4492C31.1403 58.4955 31.2643 58.5197 31.3897 58.5208C31.6228 58.5188 31.8473 58.4327 32.0219 58.2782C32.1874 58.432 32.4044 58.5186 32.6303 58.5208H37.1793V57.8647L37.1157 57.8607Z" fill="white"/>
<path d="M26.0217 55.6737C25.9801 55.6694 25.9381 55.6759 25.8998 55.6926C25.8614 55.7094 25.8281 55.7357 25.8029 55.7691C25.7732 55.7973 25.7494 55.8312 25.7331 55.8688C25.7167 55.9063 25.708 55.9468 25.7075 55.9878C25.7113 56.0703 25.7455 56.1484 25.8035 56.2072C25.8615 56.2659 25.9392 56.3011 26.0217 56.3059C26.0637 56.311 26.1064 56.3045 26.145 56.2869C26.1836 56.2694 26.2166 56.2416 26.2404 56.2065C26.2952 56.1456 26.33 56.0692 26.3398 55.9878C26.3418 55.9461 26.3338 55.9045 26.3166 55.8664C26.2993 55.8284 26.2731 55.795 26.2404 55.7691C26.2126 55.7388 26.1788 55.7147 26.1411 55.6982C26.1034 55.6818 26.0628 55.6734 26.0217 55.6737Z" fill="white"/>
<path d="M26.9243 55.7691C26.8961 55.7394 26.8622 55.7156 26.8246 55.6992C26.787 55.6828 26.7466 55.6741 26.7056 55.6737C26.6639 55.6686 26.6216 55.6747 26.5832 55.6915C26.5447 55.7083 26.5114 55.7351 26.4869 55.7691C26.4558 55.7965 26.431 55.8302 26.4138 55.8679C26.3967 55.9055 26.3877 55.9464 26.3875 55.9878C26.393 56.0703 26.4283 56.1481 26.4868 56.2065C26.5453 56.265 26.623 56.3003 26.7056 56.3059C26.7476 56.3106 26.7901 56.3038 26.8286 56.2863C26.8671 56.2688 26.9002 56.2413 26.9243 56.2065C26.9546 56.1788 26.9787 56.1449 26.9951 56.1073C27.0116 56.0696 27.0199 56.0289 27.0197 55.9878C27.0066 55.9081 26.9738 55.8329 26.9243 55.7691Z" fill="white"/>
<path d="M27.6995 58.4691H27.7751C28.0098 58.4539 28.2325 58.36 28.4073 58.2026C28.5002 58.1156 28.5739 58.0102 28.6239 57.8932C28.6739 57.7761 28.699 57.6499 28.6976 57.5227V56.5485H28.0654V57.5108C28.0701 57.6087 28.0358 57.7045 27.9699 57.7772C27.8942 57.8444 27.8 57.8874 27.6995 57.9004H27.6518C27.562 57.8957 27.4766 57.8606 27.4093 57.801C27.3509 57.7301 27.3089 57.6474 27.286 57.5585V56.5962H26.1686C25.9855 56.6013 25.8078 56.6591 25.6568 56.7628C25.5059 56.8665 25.3881 57.0116 25.3177 57.1807C25.2567 57.3212 25.2313 57.4745 25.2438 57.6271C25.2563 57.7797 25.3063 57.9268 25.3892 58.0555C25.4691 58.1873 25.5793 58.2979 25.7108 58.3782C25.8423 58.4584 25.9911 58.506 26.1448 58.5168H26.5424V57.9362H26.1448C26.0771 57.9317 26.0109 57.9141 25.9499 57.8845C25.8814 57.8473 25.8287 57.7865 25.8017 57.7133C25.7746 57.6402 25.775 57.5598 25.8028 57.4869C25.8273 57.4134 25.8727 57.3487 25.9334 57.3007C25.9942 57.2526 26.0676 57.2234 26.1448 57.2165H26.6259V57.5585C26.6315 57.6739 26.6488 57.7885 26.6776 57.9004C26.7465 58.0819 26.8633 58.2413 27.0156 58.3617C27.1716 58.4748 27.3598 58.5347 27.5524 58.5327L27.6995 58.4691Z" fill="white"/>
<path d="M28.7455 58.6639C28.7177 58.6336 28.6839 58.6095 28.6462 58.593C28.6086 58.5766 28.5679 58.5682 28.5268 58.5685C28.4852 58.5642 28.4432 58.5707 28.4049 58.5874C28.3666 58.6042 28.3332 58.6305 28.3081 58.6639C28.2784 58.6921 28.2546 58.726 28.2382 58.7636C28.2218 58.8012 28.2131 58.8416 28.2126 58.8826C28.2164 58.9651 28.2506 59.0432 28.3086 59.102C28.3667 59.1607 28.4444 59.1959 28.5268 59.2007C28.5689 59.2059 28.6115 59.1993 28.6501 59.1817C28.6887 59.1642 28.7217 59.1364 28.7455 59.1013C28.8004 59.0404 28.8351 58.964 28.8449 58.8826C28.8473 58.8408 28.8395 58.7991 28.8222 58.761C28.8048 58.7229 28.7785 58.6896 28.7455 58.6639Z" fill="white"/>
<path d="M27.819 58.5685C27.7774 58.5638 27.7353 58.5702 27.6969 58.5869C27.6585 58.6037 27.6252 58.6302 27.6003 58.6639C27.5497 58.7271 27.5168 58.8026 27.5049 58.8827C27.5024 58.9241 27.5097 58.9655 27.5263 59.0035C27.5429 59.0415 27.5683 59.075 27.6003 59.1014C27.6276 59.1326 27.6612 59.1576 27.6989 59.1747C27.7366 59.1919 27.7776 59.2008 27.819 59.2008C27.8611 59.2059 27.9037 59.1993 27.9423 59.1818C27.9809 59.1642 28.0139 59.1364 28.0377 59.1014C28.0908 59.0393 28.1253 58.9635 28.1371 58.8827C28.1385 58.841 28.1303 58.7996 28.113 58.7617C28.0958 58.7237 28.07 58.6903 28.0377 58.6639C28.0112 58.6321 27.9776 58.6069 27.9396 58.5904C27.9017 58.5738 27.8604 58.5663 27.819 58.5685Z" fill="white"/>
<path d="M4.69611 58.823C4.67894 58.781 4.65321 58.7431 4.62056 58.7116C4.5948 58.6779 4.56076 58.6514 4.52174 58.6347C4.48273 58.618 4.44007 58.6116 4.39788 58.6162C4.35545 58.6137 4.31297 58.6203 4.27323 58.6353C4.23349 58.6504 4.19737 58.6737 4.16724 58.7037C4.13531 58.7352 4.11033 58.7731 4.0939 58.8149C4.07746 58.8566 4.06994 58.9014 4.07181 58.9462C4.07074 58.9911 4.07873 59.0357 4.09528 59.0774C4.11184 59.1192 4.13663 59.1571 4.16818 59.189C4.19973 59.2209 4.23738 59.2462 4.2789 59.2632C4.32041 59.2803 4.36494 59.2888 4.40981 59.2882C4.45244 59.2932 4.49562 59.2866 4.53481 59.2691C4.574 59.2516 4.60774 59.2239 4.63249 59.1888C4.68889 59.1199 4.72227 59.0351 4.72792 58.9462V58.9224C4.73622 58.8871 4.73622 58.8503 4.72792 58.815M4.28654 58.7792C4.30312 58.7562 4.32492 58.7375 4.35015 58.7246C4.37539 58.7117 4.40333 58.705 4.43168 58.705C4.46002 58.705 4.48797 58.7117 4.5132 58.7246C4.53843 58.7375 4.56023 58.7562 4.57681 58.7792C4.59494 58.798 4.60865 58.8206 4.61691 58.8454C4.62516 58.8702 4.62777 58.8965 4.62454 58.9224C4.63134 58.9351 4.63551 58.9491 4.63678 58.9635C4.63806 58.9779 4.63642 58.9924 4.63197 59.0061C4.62751 59.0198 4.62033 59.0325 4.61085 59.0434C4.60138 59.0543 4.5898 59.0632 4.57681 59.0695C4.55742 59.088 4.53414 59.1018 4.50867 59.1101C4.48321 59.1184 4.45622 59.1208 4.42969 59.1172C4.37898 59.1123 4.33005 59.096 4.28654 59.0695C4.23883 59.0457 4.23883 58.9701 4.23883 58.9224C4.24374 58.8717 4.26005 58.8227 4.28654 58.7792Z" fill="white"/>
<path d="M5.12951 58.8588C5.1163 58.8574 5.10295 58.8591 5.09049 58.8637C5.07802 58.8683 5.06677 58.8757 5.05758 58.8852C5.04838 58.8948 5.04148 58.9064 5.03741 58.919C5.03334 58.9316 5.03221 58.945 5.03408 58.9582C5.03285 58.971 5.03447 58.984 5.03883 58.9961C5.04319 59.0083 5.05018 59.0193 5.0593 59.0284C5.06842 59.0375 5.07944 59.0445 5.09158 59.0489C5.10372 59.0532 5.11668 59.0549 5.12951 59.0536C5.20507 59.0536 5.22892 59.0298 5.22892 58.9582C5.23015 58.9448 5.22842 58.9314 5.22385 58.9187C5.21929 58.9061 5.21201 58.8947 5.20252 58.8852C5.19303 58.8757 5.18157 58.8684 5.16895 58.8639C5.15634 58.8593 5.14287 58.8576 5.12951 58.8588Z" fill="white"/>
<path d="M4.40191 58.8588C4.38747 58.8558 4.37257 58.8562 4.35827 58.8597C4.34397 58.8632 4.33062 58.8699 4.31922 58.8792C4.30781 58.8885 4.29861 58.9003 4.2923 58.9136C4.28599 58.9269 4.28271 58.9415 4.28271 58.9562C4.28271 58.9709 4.28599 58.9855 4.2923 58.9988C4.29861 59.0121 4.30781 59.0238 4.31922 59.0332C4.33062 59.0425 4.34397 59.0492 4.35827 59.0527C4.37257 59.0562 4.38747 59.0565 4.40191 59.0536C4.47348 59.0536 4.49735 59.0298 4.49735 58.9582C4.49735 58.8866 4.47348 58.8588 4.40191 58.8588Z" fill="white"/>
<path d="M5.34819 58.7037C5.32332 58.67 5.29002 58.6434 5.25163 58.6267C5.21324 58.6099 5.17112 58.6036 5.12949 58.6083C5.08459 58.6059 5.03969 58.6132 4.99784 58.6296C4.95599 58.6461 4.91817 58.6713 4.88693 58.7037C4.85175 58.7354 4.82452 58.7749 4.8074 58.819C4.7929 58.8515 4.78608 58.8869 4.78752 58.9224V58.9462C4.78452 58.9916 4.79192 59.037 4.80915 59.079C4.82638 59.1211 4.85297 59.1586 4.88693 59.1888C4.91748 59.2223 4.95509 59.2486 4.99704 59.2658C5.03899 59.283 5.08422 59.2906 5.12949 59.2882C5.17152 59.2929 5.21403 59.2861 5.25253 59.2686C5.29103 59.2511 5.32408 59.2236 5.34819 59.1888C5.40106 59.1231 5.4317 59.0424 5.43567 58.9582C5.43754 58.9133 5.43002 58.8686 5.41359 58.8268C5.39715 58.785 5.37217 58.7472 5.34024 58.7156M4.97441 58.7912C4.99141 58.7681 5.01359 58.7494 5.03915 58.7365C5.0647 58.7236 5.09292 58.7169 5.12154 58.7169C5.15017 58.7169 5.17839 58.7236 5.20394 58.7365C5.22949 58.7494 5.25166 58.7681 5.26867 58.7912C5.2868 58.81 5.30049 58.8326 5.30875 58.8573C5.31701 58.8821 5.31962 58.9084 5.31638 58.9343C5.32904 58.9602 5.33115 58.9901 5.32225 59.0175C5.31334 59.045 5.29414 59.0679 5.26867 59.0814C5.24897 59.0994 5.22565 59.113 5.20028 59.1212C5.1749 59.1295 5.14805 59.1322 5.12154 59.1292C5.06971 59.1237 5.01959 59.1074 4.97441 59.0814C4.92669 59.0576 4.92669 58.982 4.92669 58.9343C4.93161 58.8836 4.94792 58.8347 4.97441 58.7912Z" fill="white"/>
<path d="M9.0702 59.0059C9.05736 59.0047 9.0444 59.0063 9.03226 59.0106C9.02013 59.015 9.0091 59.022 8.99998 59.0311C8.99086 59.0402 8.98387 59.0513 8.97951 59.0634C8.97515 59.0755 8.97352 59.0885 8.97476 59.1013C8.97288 59.1145 8.97402 59.1279 8.97809 59.1405C8.98216 59.1532 8.98905 59.1647 8.99825 59.1743C9.00745 59.1839 9.01871 59.1912 9.03117 59.1958C9.04364 59.2004 9.05698 59.2021 9.0702 59.2007C9.14177 59.2007 9.16961 59.1769 9.16961 59.1013C9.17023 59.0883 9.16804 59.0753 9.16321 59.0631C9.15838 59.051 9.15101 59.0401 9.14159 59.031C9.13217 59.022 9.12093 59.0151 9.10862 59.0107C9.0963 59.0064 9.0832 59.0047 9.0702 59.0059Z" fill="white"/>
<path d="M9.28881 58.8588C9.2629 58.8312 9.23349 58.8071 9.20133 58.7872C9.16041 58.7677 9.11544 58.7581 9.07012 58.7594C9.02491 58.7575 8.97983 58.7654 8.93796 58.7826C8.8961 58.7997 8.85844 58.8257 8.82755 58.8588C8.76392 58.9235 8.72827 59.0106 8.72827 59.1013C8.72827 59.1921 8.76392 59.2792 8.82755 59.3439C8.85774 59.3778 8.89528 59.4045 8.93732 59.4217C8.97936 59.4389 9.02478 59.4463 9.07012 59.4433H9.13771C9.17867 59.4416 9.21788 59.4262 9.24905 59.3996L9.28484 59.3558C9.34057 59.2865 9.37385 59.2019 9.38027 59.1133C9.38266 59.0684 9.37537 59.0235 9.3589 58.9816C9.34244 58.9398 9.31719 58.9019 9.28484 58.8707M9.21326 59.2683C9.19356 59.2863 9.17024 59.2999 9.14487 59.3081C9.11949 59.3164 9.09264 59.3191 9.06613 59.3161C9.01417 59.3112 8.96393 59.2949 8.91901 59.2683C8.87129 59.2445 8.87129 59.1689 8.87129 59.1212C8.87677 59.0694 8.89302 59.0193 8.91901 58.9741C8.95668 58.9317 9.00957 58.906 9.06613 58.9025C9.12248 58.9068 9.17508 58.9324 9.21326 58.9741C9.2443 59.0169 9.26102 59.0684 9.26102 59.1212C9.26102 59.1741 9.2443 59.2256 9.21326 59.2683Z" fill="white"/>
<path d="M11.3565 56.5246H10.7958V57.5108C10.8006 57.6087 10.7663 57.7045 10.7004 57.7772C10.6306 57.8508 10.5353 57.8949 10.434 57.9005H10.3823C10.3492 57.8961 10.3173 57.885 10.2886 57.8679C10.2599 57.8508 10.2349 57.8281 10.2153 57.801C10.1712 57.7512 10.1374 57.6931 10.1159 57.6301C10.0681 57.5108 9.99656 57.4114 9.94487 57.2921C9.8957 57.1771 9.83007 57.07 9.75003 56.974C9.6461 56.8155 9.50064 56.6888 9.32953 56.6074C9.15842 56.5261 8.96825 56.4933 8.77979 56.5127C8.62812 56.529 8.48026 56.5707 8.34238 56.636C8.22059 56.7041 8.11268 56.7944 8.02427 56.9024L8.12368 56.9978L8.21911 57.0972L8.31852 57.1927L8.41397 57.2921L8.51338 57.3875C8.53585 57.3177 8.58177 57.2577 8.64337 57.2179C8.70496 57.178 8.77844 57.1607 8.85136 57.1688C8.92628 57.1652 9.00104 57.1787 9.06995 57.2083C9.13885 57.238 9.20009 57.2829 9.249 57.3398C9.31954 57.4191 9.37724 57.509 9.42 57.6062L9.56712 57.9005H7.69424V57.7295C7.67817 57.5635 7.61924 57.4046 7.52324 57.2682C7.42857 57.1431 7.31286 57.0355 7.18128 56.9501C7.03958 56.8727 6.88141 56.8305 6.72001 56.8268C6.54997 56.8218 6.38191 56.8645 6.23489 56.9501C6.07255 57.0491 5.93621 57.1854 5.83725 57.3477C5.73597 57.5161 5.69267 57.7131 5.71398 57.9084H5.47142C5.42624 57.91 5.38125 57.902 5.33942 57.8849C5.2976 57.8677 5.25991 57.8419 5.22886 57.809C5.16491 57.742 5.12205 57.6576 5.10559 57.5664V56.5445H4.4972V57.5903C4.48303 57.6814 4.44141 57.766 4.3779 57.8329C4.31496 57.8846 4.23955 57.9188 4.15921 57.9323C4.10975 57.9349 4.06029 57.9274 4.01382 57.9103C3.96734 57.8932 3.92481 57.8669 3.88881 57.8329C3.82531 57.766 3.78368 57.6814 3.76951 57.5903V55.1846H3.16112V58.0277C3.16488 58.2246 3.09545 58.4159 2.96628 58.5645C2.85312 58.7032 2.70063 58.8044 2.52888 58.8548C2.35314 58.9026 2.1678 58.9026 1.99206 58.8548C1.89632 58.8307 1.80728 58.7852 1.73154 58.7219C1.65581 58.6585 1.59535 58.5789 1.55466 58.489C1.47121 58.3628 1.42671 58.2148 1.42671 58.0635C1.42671 57.9122 1.47121 57.7642 1.55466 57.638C1.63033 57.5045 1.74022 57.3936 1.87303 57.3167C2.00583 57.2398 2.15673 57.1998 2.31018 57.2006V56.5962C2.11821 56.6093 1.92925 56.6508 1.7495 56.7195C1.46328 56.8318 1.2236 57.0379 1.06954 57.304C0.925723 57.5559 0.850317 57.841 0.850833 58.1311C0.854172 58.4175 0.947365 58.6957 1.11726 58.9264C1.29737 59.1844 1.55297 59.3802 1.84891 59.487C2.03957 59.5502 2.24099 59.5743 2.44116 59.5579C2.64134 59.5415 2.83616 59.485 3.014 59.3916C3.19777 59.3048 3.3605 59.1792 3.49094 59.0233C3.62139 58.8675 3.71644 58.6852 3.76951 58.489C3.89445 58.5473 4.02945 58.5811 4.16715 58.5884C4.41193 58.587 4.64683 58.4916 4.82327 58.322C4.99666 58.4815 5.22021 58.5757 5.45552 58.5884H5.99232C6.17934 58.7744 6.43239 58.8788 6.69616 58.8788C6.95992 58.8788 7.21296 58.7744 7.39997 58.5884H10.4896C10.6172 58.5895 10.7437 58.5639 10.8608 58.5132C10.9779 58.4625 11.0831 58.3879 11.1696 58.2941C11.2639 58.2029 11.3385 58.0935 11.3891 57.9725C11.4397 57.8515 11.4651 57.7214 11.4639 57.5903V56.5962L11.3565 56.5246Z" fill="white"/>
<path d="M10.5773 56.1111C10.5906 56.1123 10.6041 56.1106 10.6167 56.106C10.6293 56.1014 10.6408 56.0941 10.6503 56.0847C10.6598 56.0752 10.667 56.0637 10.6716 56.0511C10.6762 56.0385 10.6779 56.025 10.6767 56.0117C10.678 55.9984 10.6764 55.9851 10.6718 55.9726C10.6672 55.9602 10.6598 55.9489 10.6502 55.9397C10.6407 55.9305 10.6291 55.9236 10.6165 55.9196C10.6038 55.9155 10.5904 55.9143 10.5773 55.9162C10.5644 55.915 10.5515 55.9166 10.5394 55.921C10.5272 55.9253 10.5162 55.9323 10.5071 55.9414C10.498 55.9506 10.491 55.9616 10.4866 55.9737C10.4822 55.9859 10.4806 55.9988 10.4818 56.0117C10.4818 56.0872 10.5057 56.1111 10.5773 56.1111Z" fill="white"/>
<path d="M10.7958 55.7691C10.7679 55.739 10.7341 55.715 10.6964 55.6986C10.6588 55.6821 10.6182 55.6737 10.5771 55.6737C10.5358 55.6715 10.4945 55.679 10.4565 55.6955C10.4185 55.7121 10.3849 55.7373 10.3584 55.7691C10.3293 55.8083 10.3052 55.8511 10.2868 55.8964C10.2779 55.9263 10.2713 55.9569 10.267 55.9878C10.2651 55.9957 10.2651 56.0038 10.267 56.0117V56.0355C10.259 56.0722 10.259 56.1102 10.267 56.1469C10.2843 56.1876 10.31 56.2242 10.3425 56.2542C10.3682 56.2873 10.4015 56.3136 10.4396 56.3309C10.4777 56.3482 10.5194 56.356 10.5612 56.3536C10.6033 56.3588 10.646 56.3522 10.6845 56.3347C10.7231 56.3171 10.7561 56.2893 10.7799 56.2542C10.8318 56.1914 10.8661 56.1159 10.8793 56.0355V56.0117C10.8809 55.9665 10.8729 55.9215 10.8558 55.8797C10.8386 55.8379 10.8128 55.8002 10.7799 55.7691M10.7083 56.1668C10.6845 56.2145 10.6089 56.2145 10.5612 56.2145C10.5094 56.209 10.4593 56.1927 10.4141 56.1668C10.3959 56.1472 10.3822 56.1239 10.3739 56.0985C10.3657 56.0731 10.3631 56.0461 10.3664 56.0196C10.3425 55.9719 10.3664 55.9242 10.4141 55.8765C10.4323 55.8546 10.4546 55.8366 10.4799 55.8237C10.5052 55.8107 10.5329 55.8029 10.5612 55.8009C10.5896 55.8027 10.6173 55.8103 10.6427 55.8233C10.668 55.8363 10.6903 55.8544 10.7083 55.8765C10.7265 55.8953 10.7402 55.9179 10.7484 55.9426C10.7567 55.9674 10.7593 55.9937 10.7561 56.0196C10.7512 56.0716 10.7349 56.1218 10.7083 56.1668Z" fill="white"/>
<path d="M11.2612 55.9401C11.2479 55.9389 11.2344 55.9406 11.2218 55.9452C11.2092 55.9497 11.1977 55.957 11.1882 55.9665C11.1788 55.976 11.1715 55.9874 11.1669 56C11.1623 56.0127 11.1606 56.0261 11.1618 56.0395C11.1605 56.0527 11.1622 56.066 11.1668 56.0785C11.1713 56.091 11.1787 56.1022 11.1883 56.1114C11.1979 56.1206 11.2094 56.1275 11.2221 56.1316C11.2347 56.1357 11.2481 56.1368 11.2612 56.1349C11.3328 56.1349 11.3567 56.1111 11.3567 56.0395C11.3586 56.0263 11.3574 56.0129 11.3533 56.0003C11.3493 55.9877 11.3424 55.9761 11.3332 55.9665C11.324 55.957 11.3127 55.9496 11.3003 55.945C11.2878 55.9404 11.2744 55.9387 11.2612 55.9401Z" fill="white"/>
<path d="M11.5156 55.793C11.4869 55.7628 11.4523 55.7387 11.4141 55.7223C11.3758 55.7059 11.3345 55.6975 11.2929 55.6975H11.269H11.2054C11.1924 55.694 11.1786 55.694 11.1656 55.6975C11.1224 55.7145 11.0832 55.7403 11.0503 55.7731C11.0184 55.8046 10.9934 55.8425 10.977 55.8843C10.9605 55.9261 10.953 55.9708 10.9549 56.0157C10.9522 56.0606 10.9594 56.1056 10.9759 56.1475C10.9924 56.1893 11.0178 56.2271 11.0503 56.2582C11.0831 56.2922 11.1223 56.3192 11.1656 56.3377H11.2133C11.2317 56.3416 11.2507 56.3416 11.269 56.3377H11.2929C11.3355 56.3427 11.3787 56.3361 11.4179 56.3186C11.4571 56.3011 11.4908 56.2734 11.5156 56.2383L11.5434 56.1946C11.5653 56.1585 11.5827 56.1197 11.5951 56.0793C11.597 56.0555 11.597 56.0315 11.5951 56.0077C11.5934 55.918 11.5595 55.8319 11.4996 55.7651M11.2531 56.1628C11.2024 56.1579 11.1535 56.1416 11.11 56.1151C11.0583 56.0912 11.0583 56.0157 11.0583 55.9679C11.0647 55.917 11.0823 55.8681 11.11 55.8248C11.1265 55.8018 11.1483 55.7831 11.1736 55.7702C11.1988 55.7573 11.2268 55.7505 11.2551 55.7505C11.2834 55.7505 11.3114 55.7573 11.3366 55.7702C11.3619 55.7831 11.3837 55.8018 11.4002 55.8248C11.4184 55.8436 11.4321 55.8662 11.4403 55.891C11.4486 55.9157 11.4512 55.942 11.448 55.9679C11.4606 55.9939 11.4627 56.0237 11.4538 56.0511C11.4449 56.0786 11.4257 56.1015 11.4002 56.1151C11.3808 56.1335 11.3576 56.1474 11.3321 56.1556C11.3066 56.1639 11.2796 56.1663 11.2531 56.1628Z" fill="white"/>
<path d="M11.2613 55.6975C11.1712 55.6996 11.0854 55.7362 11.0217 55.7999C10.958 55.8636 10.9213 55.9495 10.9193 56.0395C10.9182 56.0845 10.9263 56.1293 10.9431 56.1711C10.96 56.2129 10.9852 56.2508 11.0172 56.2824C11.0493 56.3141 11.0874 56.3389 11.1294 56.3552C11.1714 56.3716 11.2162 56.3791 11.2613 56.3775C11.3503 56.3755 11.4351 56.3392 11.498 56.2763C11.561 56.2133 11.5972 56.1285 11.5993 56.0395C11.5937 55.9513 11.5565 55.8681 11.4943 55.8052C11.4322 55.7423 11.3494 55.7041 11.2613 55.6975Z" fill="white"/>
<path d="M10.5774 55.6975C10.4905 55.7017 10.4088 55.7399 10.35 55.8039C10.2912 55.868 10.26 55.9526 10.2632 56.0395C10.2582 56.084 10.2627 56.129 10.2763 56.1717C10.2899 56.2144 10.3123 56.2537 10.3422 56.287C10.372 56.3204 10.4086 56.3471 10.4494 56.3654C10.4903 56.3837 10.5346 56.3931 10.5793 56.3931C10.6241 56.3931 10.6684 56.3837 10.7092 56.3654C10.7501 56.3471 10.7867 56.3204 10.8165 56.287C10.8463 56.2537 10.8688 56.2144 10.8824 56.1717C10.896 56.129 10.9005 56.084 10.8955 56.0395C10.8971 55.9962 10.8901 55.9529 10.875 55.9123C10.8598 55.8716 10.8368 55.8343 10.8073 55.8026C10.7777 55.7708 10.7422 55.7452 10.7028 55.7272C10.6633 55.7091 10.6207 55.6991 10.5774 55.6975Z" fill="white"/>
<path d="M9.0702 58.7633C9.13817 58.7625 9.20482 58.782 9.26166 58.8193C9.31851 58.8566 9.36295 58.9099 9.38932 58.9726C9.4157 59.0352 9.4228 59.1043 9.40974 59.171C9.39667 59.2377 9.36402 59.299 9.31596 59.3471C9.26789 59.3952 9.20659 59.4278 9.13989 59.4409C9.07318 59.4539 9.0041 59.4468 8.94146 59.4205C8.87881 59.3941 8.82545 59.3496 8.78818 59.2928C8.75091 59.236 8.73141 59.1693 8.7322 59.1013C8.7322 59.0117 8.76781 58.9257 8.8312 58.8623C8.89458 58.7989 8.98056 58.7633 9.0702 58.7633Z" fill="white"/>
<path d="M5.12952 58.5924C5.19749 58.5916 5.26415 58.6111 5.32099 58.6483C5.37783 58.6856 5.42228 58.739 5.44865 58.8016C5.47503 58.8643 5.48213 58.9334 5.46906 59.0001C5.45599 59.0668 5.42335 59.1281 5.37528 59.1761C5.32722 59.2242 5.26593 59.2568 5.19923 59.2699C5.13252 59.283 5.06343 59.2759 5.00078 59.2495C4.93814 59.2231 4.88478 59.1787 4.84751 59.1218C4.81023 59.065 4.79074 58.9983 4.79153 58.9304C4.79153 58.886 4.80027 58.842 4.81725 58.801C4.83424 58.76 4.85914 58.7228 4.89052 58.6914C4.92191 58.66 4.95917 58.6351 5.00018 58.6181C5.04118 58.6011 5.08514 58.5924 5.12952 58.5924Z" fill="white"/>
<path d="M4.40183 58.5923C4.48566 58.6014 4.56318 58.6412 4.61951 58.7039C4.67583 58.7667 4.70699 58.848 4.70699 58.9323C4.70699 59.0166 4.67583 59.098 4.61951 59.1608C4.56318 59.2235 4.48566 59.2632 4.40183 59.2723C4.318 59.2632 4.24048 59.2235 4.18416 59.1608C4.12784 59.098 4.09668 59.0166 4.09668 58.9323C4.09668 58.848 4.12784 58.7667 4.18416 58.7039C4.24048 58.6412 4.318 58.6014 4.40183 58.5923Z" fill="white"/>
<path d="M6.64056 57.475C6.74602 57.475 6.84717 57.5169 6.92174 57.5914C6.99631 57.666 7.0382 57.7672 7.0382 57.8726C7.0382 57.9781 6.99631 58.0792 6.92174 58.1538C6.84717 58.2284 6.74602 58.2703 6.64056 58.2703C6.5351 58.2703 6.43396 58.2284 6.35939 58.1538C6.28482 58.0792 6.24292 57.9781 6.24292 57.8726C6.24292 57.7672 6.28482 57.666 6.35939 57.5914C6.43396 57.5169 6.5351 57.475 6.64056 57.475Z" fill="white"/>
<path d="M13.7425 56.3179C13.7845 56.3221 13.8268 56.3152 13.8653 56.2977C13.9037 56.2802 13.9368 56.2529 13.9612 56.2184C14.0176 56.1496 14.051 56.0647 14.0566 55.9759C14.0585 55.931 14.051 55.8863 14.0345 55.8445C14.0181 55.8027 13.9931 55.7649 13.9612 55.7333C13.933 55.7036 13.8991 55.6798 13.8615 55.6634C13.8239 55.647 13.7835 55.6383 13.7425 55.6379C13.7005 55.6357 13.6586 55.6432 13.62 55.6597C13.5814 55.6762 13.5471 55.7014 13.5198 55.7333C13.4879 55.7649 13.4629 55.8027 13.4465 55.8445C13.43 55.8863 13.4225 55.931 13.4244 55.9759C13.4217 56.0208 13.4289 56.0658 13.4454 56.1077C13.4619 56.1496 13.4873 56.1874 13.5198 56.2184C13.5478 56.2498 13.5821 56.2748 13.6205 56.292C13.6589 56.3091 13.7005 56.3179 13.7425 56.3179Z" fill="white"/>
<path d="M13.0586 56.3179C13.1006 56.323 13.1433 56.3164 13.1819 56.2989C13.2205 56.2813 13.2535 56.2535 13.2773 56.2184C13.3369 56.1511 13.3719 56.0656 13.3767 55.9759C13.3788 55.9306 13.371 55.8855 13.3539 55.8436C13.3367 55.8017 13.3105 55.764 13.2773 55.7333C13.2495 55.703 13.2157 55.6789 13.178 55.6624C13.1404 55.646 13.0997 55.6376 13.0586 55.6379C13.0172 55.6357 12.9759 55.6432 12.9379 55.6598C12.9 55.6763 12.8664 55.7015 12.8399 55.7333C12.8079 55.7649 12.783 55.8027 12.7665 55.8445C12.7501 55.8863 12.7426 55.931 12.7444 55.9759C12.7418 56.0208 12.749 56.0658 12.7654 56.1077C12.7819 56.1496 12.8073 56.1874 12.8399 56.2184C12.8655 56.2515 12.8989 56.2778 12.937 56.2951C12.9751 56.3124 13.0168 56.3202 13.0586 56.3179Z" fill="white"/>
<path d="M17.1463 57.813C17.1051 57.7611 17.0716 57.7035 17.0469 57.642C17.0058 57.5302 16.9496 57.4245 16.8799 57.3279C16.8223 57.2175 16.7572 57.1112 16.6851 57.0098C16.5834 56.8539 16.4412 56.7287 16.2738 56.6474C16.1064 56.5661 15.9201 56.532 15.7347 56.5485C15.5811 56.5539 15.4311 56.5962 15.2973 56.6718C15.1755 56.7398 15.0676 56.8302 14.9792 56.9382L15.0309 56.9859L15.0786 57.0336L15.174 57.133L15.2735 57.2285L15.4206 57.3756L15.4683 57.4233C15.492 57.3543 15.5382 57.2952 15.5995 57.2556C15.6608 57.2159 15.7336 57.198 15.8063 57.2046C15.8809 57.2032 15.955 57.2177 16.0236 57.2472C16.0921 57.2767 16.1536 57.3205 16.2039 57.3756C16.2758 57.4539 16.3336 57.544 16.3749 57.642L16.522 57.9363H14.7446C14.6478 57.9305 14.5551 57.8959 14.4782 57.8368C14.4113 57.7724 14.3691 57.6866 14.3589 57.5943V56.5962H13.1421C12.9764 56.6202 12.8198 56.6866 12.6874 56.7891C12.555 56.8915 12.4514 57.0264 12.3866 57.1807C12.3265 57.3255 12.3017 57.4825 12.3142 57.6387C12.3266 57.7949 12.376 57.946 12.4582 58.0794C12.5383 58.2199 12.654 58.3368 12.7936 58.4184C12.9331 58.5001 13.0917 58.5436 13.2534 58.5446H13.6908V57.9084H13.2932C13.2579 57.9095 13.2228 57.9034 13.1899 57.8904C13.1571 57.8774 13.1273 57.8578 13.1023 57.8329C13.0372 57.7923 12.9874 57.7312 12.9607 57.6592C12.9341 57.5872 12.9321 57.5084 12.9552 57.4352C12.9756 57.3605 13.0195 57.2943 13.0803 57.2463C13.1411 57.1984 13.2158 57.1712 13.2932 57.1688H13.7823V57.5108C13.7867 57.634 13.8027 57.7564 13.83 57.8766C13.9022 58.064 14.0298 58.225 14.1958 58.3379C14.3552 58.4617 14.5507 58.5301 14.7525 58.5327H17.3809V57.9084H17.2855C17.2338 57.8846 17.1623 57.8567 17.1384 57.809" fill="white"/>
<path d="M18.4108 55.1846H18.2915H18.1683H18.045H17.9734H17.9019V58.5168H18.045H18.1683H18.2915H18.4108H18.5341V55.1846H18.4586H18.4108Z" fill="white"/>
<path d="M22.765 57.9084C22.7312 57.9046 22.6985 57.8937 22.6691 57.8766C22.6397 57.8595 22.6141 57.8365 22.594 57.809C22.5528 57.7571 22.5193 57.6995 22.4946 57.638C22.4469 57.5187 22.3753 57.4193 22.3276 57.3239C22.27 57.2136 22.2049 57.1073 22.1328 57.0058C22.0311 56.8499 21.8889 56.7247 21.7215 56.6434C21.5541 56.5622 21.3678 56.528 21.1824 56.5445C21.0288 56.5499 20.8788 56.5922 20.745 56.6678C20.6236 56.7348 20.5168 56.8254 20.4309 56.9342L20.5263 57.0296L20.6217 57.1291L20.7211 57.2245L20.8166 57.3239L20.916 57.4193C20.9405 57.35 20.9874 57.2908 21.0494 57.2512C21.1113 57.2116 21.1847 57.1938 21.258 57.2006C21.3325 57.2 21.4063 57.2148 21.4748 57.2443C21.5432 57.2737 21.6048 57.3171 21.6556 57.3716C21.7249 57.4511 21.7812 57.541 21.8226 57.638L21.9697 57.9323H20.3155C20.2143 57.9267 20.119 57.8826 20.0491 57.809C20.0133 57.7752 19.9857 57.7336 19.9684 57.6874C19.9512 57.6412 19.9448 57.5917 19.9497 57.5426V56.5445H19.3413V58.322C19.3431 58.3853 19.3313 58.4482 19.3066 58.5066C19.2819 58.5649 19.2449 58.6172 19.1982 58.66C19.1539 58.7062 19.1009 58.743 19.0421 58.7683C18.9834 58.7935 18.9202 58.8067 18.8562 58.8071V59.4155C19.0576 59.4223 19.2568 59.3708 19.4296 59.267C19.6025 59.1633 19.7416 59.0119 19.8304 58.831C19.8931 58.7064 19.9335 58.5718 19.9497 58.4333C20.0647 58.4844 20.1898 58.5089 20.3155 58.5049H22.8684V57.9084H22.765Z" fill="white"/>
<path d="M21.4567 58.7633C21.415 58.7582 21.3728 58.7644 21.3343 58.7812C21.2958 58.798 21.2626 58.8248 21.238 58.8588C21.2045 58.8893 21.1782 58.9269 21.161 58.9689C21.1438 59.0108 21.1362 59.0561 21.1386 59.1013C21.1356 59.1467 21.143 59.1921 21.1602 59.2341C21.1774 59.2762 21.204 59.3137 21.238 59.3439C21.2651 59.3753 21.2987 59.4005 21.3364 59.4176C21.3742 59.4348 21.4152 59.4436 21.4567 59.4433C21.4987 59.4476 21.5411 59.4406 21.5795 59.4231C21.6179 59.4057 21.651 59.3783 21.6754 59.3439C21.7318 59.275 21.7652 59.1902 21.7708 59.1013C21.7732 59.0564 21.7659 59.0115 21.7495 58.9697C21.733 58.9278 21.7077 58.89 21.6754 58.8588C21.6503 58.8254 21.6169 58.799 21.5786 58.7823C21.5403 58.7656 21.4983 58.7591 21.4567 58.7633Z" fill="white"/>
</g>
<defs>
<clipPath id="clip0_223_2082">
<rect width="123.241" height="60" fill="white"/>
</clipPath>
</defs>
</svg>
