<?xml version="1.0" encoding="UTF-8"?> <svg xmlns="http://www.w3.org/2000/svg" width="247" height="39" viewBox="0 0 247 39" fill="none"><path d="M0.580542 25.3855L19.4605 13.6255C20.2339 13.1468 21.0592 12.7577 21.9205 12.4655C25.7805 11.2055 37.4705 7.96547 55.4105 8.32547C55.6405 8.32547 67.3105 7.82548 69.1605 12.4555C69.1605 12.4555 71.1605 16.1755 50.4605 36.9655C50.3328 37.0859 50.1787 37.1749 50.0105 37.2255C48.6905 37.5755 41.8605 38.8555 15.6005 37.5055L2.90054 36.7455C2.68045 36.7322 2.47091 36.6466 2.30453 36.5019C2.13814 36.3572 2.02423 36.1616 1.98054 35.9455L0.130537 26.4255C0.0999875 26.2331 0.126301 26.0359 0.206244 25.8583C0.286186 25.6806 0.416282 25.5302 0.580542 25.4255" fill="#ED6E47"></path><path d="M0.650096 23.5555L18.1101 11.5555C19.0744 10.8884 20.1237 10.3537 21.2301 9.96545C26.0301 8.27545 39.9701 4.31545 59.7701 6.62545C59.8531 6.63577 59.9374 6.62665 60.0163 6.59882C60.0952 6.571 60.1665 6.52521 60.2247 6.4651C60.2829 6.40498 60.3263 6.33216 60.3516 6.2524C60.3768 6.17263 60.3831 6.08809 60.3701 6.00545C60.06 4.72899 59.4144 3.55861 58.5001 2.61545C58.1546 2.21624 57.6872 1.94209 57.1701 1.83545C53.1701 1.03545 34.7701 -2.24456 20.0901 2.56544C19.3372 2.81006 18.6521 3.22792 18.0901 3.78545L0.380091 21.0454C0.25816 21.1612 0.161464 21.3009 0.0960719 21.4557C0.0306799 21.6106 -0.00199367 21.7773 9.40991e-05 21.9454V23.2355C-0.00132442 23.3116 0.0184977 23.3866 0.0573374 23.4522C0.0961772 23.5177 0.152499 23.5711 0.219989 23.6064C0.287478 23.6417 0.363464 23.6575 0.439433 23.652C0.515402 23.6466 0.588353 23.62 0.650096 23.5754" fill="#ED6E47"></path><path d="M86.366 16.5095V8.76622C86.366 8.36397 86.4576 8.06229 86.6409 7.86117C86.8241 7.66004 87.061 7.55948 87.3515 7.55948C87.6509 7.55948 87.8923 7.66004 88.0755 7.86117C88.2633 8.05782 88.3571 8.35951 88.3571 8.76622V16.5095C88.3571 16.9162 88.2633 17.2201 88.0755 17.4212C87.8923 17.6223 87.6509 17.7229 87.3515 17.7229C87.0655 17.7229 86.8286 17.6223 86.6409 17.4212C86.4576 17.2156 86.366 16.9117 86.366 16.5095ZM93.1841 8.75281L97.0121 14.5452V8.69918C97.0121 8.31928 97.0926 8.03547 97.2535 7.84776C97.4188 7.65557 97.6401 7.55948 97.9172 7.55948C98.2032 7.55948 98.4289 7.65557 98.5943 7.84776C98.7596 8.03547 98.8423 8.31928 98.8423 8.69918V16.429C98.8423 17.2916 98.4848 17.7229 97.7697 17.7229C97.5909 17.7229 97.43 17.6961 97.287 17.6425C97.144 17.5933 97.0099 17.5128 96.8847 17.4011C96.7596 17.2894 96.6434 17.1598 96.5361 17.0123C96.4289 16.8603 96.3216 16.7061 96.2143 16.5497L92.4801 10.8244V16.5832C92.4801 16.9586 92.393 17.2424 92.2187 17.4346C92.0444 17.6268 91.8209 17.7229 91.5483 17.7229C91.2667 17.7229 91.041 17.6268 90.8712 17.4346C90.7013 17.238 90.6164 16.9542 90.6164 16.5832V9.00086C90.6164 8.67907 90.6522 8.42655 90.7237 8.2433C90.8086 8.04218 90.9494 7.87904 91.146 7.7539C91.3427 7.62429 91.555 7.55948 91.7829 7.55948C91.9617 7.55948 92.1136 7.58853 92.2388 7.64664C92.3684 7.70474 92.4801 7.78295 92.574 7.88128C92.6723 7.97961 92.7706 8.10698 92.869 8.26341C92.9718 8.41984 93.0768 8.58298 93.1841 8.75281ZM102.476 8.86678L104.702 15.4569L106.934 8.81985C107.05 8.47124 107.138 8.22989 107.196 8.09581C107.254 7.95726 107.35 7.83435 107.484 7.72709C107.618 7.61535 107.801 7.55948 108.034 7.55948C108.203 7.55948 108.36 7.60194 108.503 7.68686C108.65 7.77178 108.764 7.88575 108.845 8.02877C108.93 8.16732 108.972 8.30811 108.972 8.45113C108.972 8.54946 108.959 8.65672 108.932 8.77293C108.905 8.88466 108.872 8.9964 108.831 9.10813C108.791 9.2154 108.751 9.32713 108.711 9.44334L106.331 15.8659C106.246 16.1117 106.161 16.3463 106.076 16.5698C105.991 16.7888 105.893 16.9832 105.781 17.1531C105.669 17.3184 105.52 17.4547 105.332 17.562C105.149 17.6693 104.923 17.7229 104.655 17.7229C104.387 17.7229 104.159 17.6693 103.971 17.562C103.788 17.4592 103.638 17.3229 103.522 17.1531C103.41 16.9787 103.312 16.7821 103.227 16.5631C103.142 16.3441 103.057 16.1117 102.972 15.8659L100.632 9.49697C100.592 9.38076 100.55 9.26679 100.505 9.15506C100.465 9.04332 100.429 8.92265 100.398 8.79304C100.371 8.66342 100.357 8.55392 100.357 8.46454C100.357 8.2366 100.449 8.02877 100.632 7.84106C100.816 7.65334 101.046 7.55948 101.323 7.55948C101.663 7.55948 101.902 7.66451 102.04 7.87458C102.183 8.08017 102.328 8.4109 102.476 8.86678ZM116.95 9.26232H112.465V11.6758H116.595C116.899 11.6758 117.124 11.7451 117.272 11.8836C117.424 12.0177 117.5 12.1965 117.5 12.42C117.5 12.6434 117.426 12.8267 117.279 12.9697C117.131 13.1082 116.903 13.1775 116.595 13.1775H112.465V15.9731H117.104C117.417 15.9731 117.652 16.0469 117.808 16.1944C117.969 16.3374 118.05 16.5296 118.05 16.7709C118.05 17.0033 117.969 17.1933 117.808 17.3408C117.652 17.4838 117.417 17.5553 117.104 17.5553H111.694C111.261 17.5553 110.948 17.4592 110.756 17.267C110.568 17.0748 110.474 16.7642 110.474 16.3352V8.94723C110.474 8.66119 110.516 8.42878 110.601 8.25001C110.686 8.06676 110.818 7.93491 110.997 7.85446C111.18 7.76954 111.413 7.72709 111.694 7.72709H116.95C117.267 7.72709 117.502 7.7986 117.654 7.94162C117.81 8.08017 117.889 8.26341 117.889 8.49135C117.889 8.72376 117.81 8.91148 117.654 9.0545C117.502 9.19305 117.267 9.26232 116.95 9.26232ZM127.1 14.6055C127.1 15.1999 126.946 15.734 126.638 16.2078C126.334 16.6815 125.887 17.0525 125.297 17.3207C124.707 17.5888 124.007 17.7229 123.198 17.7229C122.228 17.7229 121.428 17.5397 120.798 17.1732C120.351 16.9095 119.987 16.5586 119.705 16.1206C119.428 15.6781 119.29 15.2491 119.29 14.8334C119.29 14.5921 119.373 14.3865 119.538 14.2167C119.708 14.0423 119.922 13.9552 120.181 13.9552C120.392 13.9552 120.568 14.0222 120.711 14.1563C120.859 14.2904 120.984 14.4893 121.087 14.753C121.212 15.0658 121.346 15.3273 121.489 15.5374C121.636 15.7474 121.842 15.9217 122.106 16.0603C122.369 16.1944 122.716 16.2614 123.145 16.2614C123.735 16.2614 124.213 16.1251 124.579 15.8525C124.95 15.5754 125.136 15.2312 125.136 14.82C125.136 14.4938 125.035 14.2301 124.834 14.0289C124.637 13.8233 124.38 13.6669 124.063 13.5597C123.75 13.4524 123.33 13.3384 122.803 13.2177C122.097 13.0524 121.504 12.8602 121.026 12.6412C120.552 12.4177 120.175 12.116 119.893 11.7361C119.616 11.3518 119.478 10.8758 119.478 10.3082C119.478 9.76737 119.625 9.28691 119.92 8.86678C120.215 8.44666 120.642 8.12486 121.201 7.90139C121.759 7.67345 122.416 7.55948 123.172 7.55948C123.775 7.55948 124.296 7.63546 124.734 7.78742C125.176 7.93491 125.543 8.1338 125.833 8.38409C126.124 8.6299 126.336 8.88913 126.47 9.16176C126.604 9.4344 126.671 9.70033 126.671 9.95955C126.671 10.1964 126.586 10.411 126.416 10.6031C126.251 10.7909 126.043 10.8847 125.793 10.8847C125.565 10.8847 125.391 10.8288 125.27 10.7171C125.154 10.6009 125.026 10.4132 124.888 10.154C124.709 9.78301 124.494 9.49473 124.244 9.28914C123.994 9.07908 123.592 8.97405 123.037 8.97405C122.523 8.97405 122.108 9.08802 121.79 9.31596C121.478 9.53943 121.321 9.80983 121.321 10.1272C121.321 10.3238 121.375 10.4936 121.482 10.6367C121.589 10.7797 121.737 10.9026 121.925 11.0054C122.112 11.1082 122.302 11.1886 122.494 11.2467C122.687 11.3048 123.004 11.3898 123.446 11.5015C124.001 11.6311 124.501 11.7741 124.948 11.9306C125.4 12.087 125.782 12.2769 126.094 12.5004C126.412 12.7239 126.658 13.0077 126.832 13.3518C127.011 13.6915 127.1 14.1094 127.1 14.6055ZM135.172 9.36959H133V16.5095C133 16.9206 132.908 17.2268 132.725 17.4279C132.542 17.6246 132.305 17.7229 132.014 17.7229C131.719 17.7229 131.478 17.6223 131.29 17.4212C131.107 17.2201 131.015 16.9162 131.015 16.5095V9.36959H128.843C128.504 9.36959 128.251 9.29585 128.086 9.14835C127.92 8.9964 127.838 8.79751 127.838 8.55169C127.838 8.29693 127.922 8.09581 128.092 7.94832C128.267 7.80083 128.517 7.72709 128.843 7.72709H135.172C135.516 7.72709 135.771 7.80307 135.936 7.95502C136.106 8.10698 136.191 8.30587 136.191 8.55169C136.191 8.79751 136.106 8.9964 135.936 9.14835C135.766 9.29585 135.512 9.36959 135.172 9.36959ZM140.689 16.0737L139.114 9.81206V16.5966C139.114 16.972 139.029 17.2536 138.859 17.4413C138.694 17.629 138.473 17.7229 138.195 17.7229C137.927 17.7229 137.708 17.6313 137.538 17.448C137.369 17.2603 137.284 16.9765 137.284 16.5966V8.81985C137.284 8.39079 137.395 8.10251 137.619 7.95502C137.842 7.80307 138.144 7.72709 138.524 7.72709H139.141C139.512 7.72709 139.78 7.76061 139.945 7.82765C140.115 7.89469 140.24 8.01536 140.321 8.18967C140.401 8.36397 140.493 8.64778 140.595 9.04109L142.023 14.4245L143.451 9.04109C143.554 8.64778 143.646 8.36397 143.726 8.18967C143.807 8.01536 143.93 7.89469 144.095 7.82765C144.265 7.76061 144.535 7.72709 144.906 7.72709H145.523C145.903 7.72709 146.205 7.80307 146.428 7.95502C146.652 8.10251 146.763 8.39079 146.763 8.81985V16.5966C146.763 16.972 146.678 17.2536 146.508 17.4413C146.343 17.629 146.12 17.7229 145.838 17.7229C145.574 17.7229 145.358 17.629 145.188 17.4413C145.018 17.2536 144.933 16.972 144.933 16.5966V9.81206L143.358 16.0737C143.255 16.4804 143.17 16.7799 143.103 16.972C143.04 17.1598 142.922 17.3318 142.747 17.4883C142.573 17.6447 142.332 17.7229 142.023 17.7229C141.791 17.7229 141.594 17.6715 141.433 17.5687C141.273 17.4704 141.147 17.343 141.058 17.1866C140.969 17.0301 140.897 16.8581 140.844 16.6704C140.794 16.4782 140.743 16.2793 140.689 16.0737ZM155.284 9.26232H150.799V11.6758H154.929C155.233 11.6758 155.458 11.7451 155.606 11.8836C155.758 12.0177 155.834 12.1965 155.834 12.42C155.834 12.6434 155.76 12.8267 155.613 12.9697C155.465 13.1082 155.237 13.1775 154.929 13.1775H150.799V15.9731H155.438C155.751 15.9731 155.986 16.0469 156.142 16.1944C156.303 16.3374 156.384 16.5296 156.384 16.7709C156.384 17.0033 156.303 17.1933 156.142 17.3408C155.986 17.4838 155.751 17.5553 155.438 17.5553H150.028C149.595 17.5553 149.282 17.4592 149.09 17.267C148.902 17.0748 148.808 16.7642 148.808 16.3352V8.94723C148.808 8.66119 148.85 8.42878 148.935 8.25001C149.02 8.06676 149.152 7.93491 149.331 7.85446C149.514 7.76954 149.747 7.72709 150.028 7.72709H155.284C155.601 7.72709 155.836 7.7986 155.988 7.94162C156.145 8.08017 156.223 8.26341 156.223 8.49135C156.223 8.72376 156.145 8.91148 155.988 9.0545C155.836 9.19305 155.601 9.26232 155.284 9.26232ZM160.56 8.75281L164.388 14.5452V8.69918C164.388 8.31928 164.469 8.03547 164.63 7.84776C164.795 7.65557 165.016 7.55948 165.293 7.55948C165.579 7.55948 165.805 7.65557 165.97 7.84776C166.136 8.03547 166.219 8.31928 166.219 8.69918V16.429C166.219 17.2916 165.861 17.7229 165.146 17.7229C164.967 17.7229 164.806 17.6961 164.663 17.6425C164.52 17.5933 164.386 17.5128 164.261 17.4011C164.136 17.2894 164.02 17.1598 163.912 17.0123C163.805 16.8603 163.698 16.7061 163.591 16.5497L159.856 10.8244V16.5832C159.856 16.9586 159.769 17.2424 159.595 17.4346C159.421 17.6268 159.197 17.7229 158.924 17.7229C158.643 17.7229 158.417 17.6268 158.247 17.4346C158.078 17.238 157.993 16.9542 157.993 16.5832V9.00086C157.993 8.67907 158.028 8.42655 158.1 8.2433C158.185 8.04218 158.326 7.87904 158.522 7.7539C158.719 7.62429 158.931 7.55948 159.159 7.55948C159.338 7.55948 159.49 7.58853 159.615 7.64664C159.745 7.70474 159.856 7.78295 159.95 7.88128C160.049 7.97961 160.147 8.10698 160.245 8.26341C160.348 8.41984 160.453 8.58298 160.56 8.75281ZM174.78 9.36959H172.608V16.5095C172.608 16.9206 172.516 17.2268 172.333 17.4279C172.149 17.6246 171.913 17.7229 171.622 17.7229C171.327 17.7229 171.086 17.6223 170.898 17.4212C170.715 17.2201 170.623 16.9162 170.623 16.5095V9.36959H168.451C168.111 9.36959 167.859 9.29585 167.693 9.14835C167.528 8.9964 167.445 8.79751 167.445 8.55169C167.445 8.29693 167.53 8.09581 167.7 7.94832C167.874 7.80083 168.125 7.72709 168.451 7.72709H174.78C175.124 7.72709 175.379 7.80307 175.544 7.95502C175.714 8.10698 175.799 8.30587 175.799 8.55169C175.799 8.79751 175.714 8.9964 175.544 9.14835C175.374 9.29585 175.119 9.36959 174.78 9.36959ZM189.388 13.5597V15.4435C189.388 15.6938 189.363 15.8949 189.314 16.0469C189.265 16.1944 189.173 16.3284 189.039 16.4491C188.91 16.5698 188.742 16.686 188.536 16.7977C187.942 17.1195 187.37 17.3542 186.82 17.5017C186.271 17.6492 185.672 17.7229 185.024 17.7229C184.268 17.7229 183.58 17.6067 182.959 17.3743C182.337 17.1419 181.808 16.8044 181.37 16.362C180.932 15.9195 180.594 15.3832 180.357 14.753C180.125 14.1228 180.009 13.4189 180.009 12.6412C180.009 11.8769 180.123 11.1775 180.351 10.5428C180.579 9.90815 180.914 9.36959 181.356 8.92712C181.799 8.48465 182.337 8.14721 182.972 7.9148C183.607 7.67792 184.326 7.55948 185.131 7.55948C185.792 7.55948 186.378 7.64887 186.887 7.82765C187.397 8.00195 187.81 8.22319 188.128 8.49135C188.445 8.75952 188.684 9.04332 188.845 9.34277C189.006 9.64222 189.086 9.90815 189.086 10.1406C189.086 10.3908 188.992 10.6054 188.805 10.7842C188.621 10.9585 188.4 11.0456 188.141 11.0456C187.998 11.0456 187.859 11.0121 187.725 10.9451C187.596 10.878 187.486 10.7842 187.397 10.6635C187.151 10.2791 186.943 9.9886 186.773 9.79195C186.603 9.59529 186.373 9.42993 186.083 9.29585C185.797 9.16176 185.43 9.09472 184.983 9.09472C184.523 9.09472 184.112 9.17517 183.75 9.33607C183.388 9.4925 183.077 9.72267 182.818 10.0266C182.563 10.326 182.366 10.6948 182.228 11.1328C182.094 11.5708 182.027 12.0557 182.027 12.5876C182.027 13.7407 182.291 14.6278 182.818 15.2491C183.35 15.8703 184.089 16.181 185.037 16.181C185.497 16.181 185.929 16.1206 186.331 15.9999C186.738 15.8793 187.149 15.7072 187.564 15.4837V13.8882H186.022C185.651 13.8882 185.37 13.8323 185.178 13.7206C184.99 13.6088 184.896 13.4189 184.896 13.1507C184.896 12.9317 184.974 12.7507 185.131 12.6077C185.292 12.4647 185.508 12.3931 185.781 12.3931H188.04C188.317 12.3931 188.552 12.4177 188.744 12.4669C188.937 12.516 189.091 12.6255 189.207 12.7954C189.328 12.9652 189.388 13.22 189.388 13.5597ZM197.051 16.4424L196.581 15.2089H192.586L192.116 16.4692C191.933 16.9609 191.777 17.2938 191.647 17.4681C191.518 17.638 191.305 17.7229 191.01 17.7229C190.76 17.7229 190.539 17.6313 190.347 17.448C190.154 17.2648 190.058 17.057 190.058 16.8246C190.058 16.6905 190.081 16.5519 190.125 16.4089C190.17 16.2659 190.244 16.067 190.347 15.8122L192.861 9.42993C192.932 9.24668 193.017 9.02768 193.115 8.77293C193.218 8.5137 193.325 8.29917 193.437 8.12933C193.553 7.95949 193.703 7.82318 193.886 7.72038C194.074 7.61312 194.304 7.55948 194.577 7.55948C194.854 7.55948 195.084 7.61312 195.267 7.72038C195.455 7.82318 195.605 7.95726 195.717 8.12263C195.833 8.288 195.929 8.46677 196.005 8.65896C196.085 8.84667 196.186 9.09919 196.307 9.41652L198.874 15.7586C199.075 16.2413 199.176 16.5921 199.176 16.8111C199.176 17.0391 199.08 17.2491 198.888 17.4413C198.7 17.629 198.472 17.7229 198.204 17.7229C198.047 17.7229 197.913 17.6938 197.802 17.6357C197.69 17.5821 197.596 17.5084 197.52 17.4145C197.444 17.3162 197.361 17.1687 197.272 16.972C197.187 16.7709 197.113 16.5944 197.051 16.4424ZM193.109 13.7138H196.045L194.563 9.65787L193.109 13.7138ZM205.82 9.36959H203.648V16.5095C203.648 16.9206 203.556 17.2268 203.373 17.4279C203.189 17.6246 202.953 17.7229 202.662 17.7229C202.367 17.7229 202.126 17.6223 201.938 17.4212C201.755 17.2201 201.663 16.9162 201.663 16.5095V9.36959H199.491C199.151 9.36959 198.899 9.29585 198.733 9.14835C198.568 8.9964 198.485 8.79751 198.485 8.55169C198.485 8.29693 198.57 8.09581 198.74 7.94832C198.914 7.80083 199.165 7.72709 199.491 7.72709H205.82C206.164 7.72709 206.419 7.80307 206.584 7.95502C206.754 8.10698 206.839 8.30587 206.839 8.55169C206.839 8.79751 206.754 8.9964 206.584 9.14835C206.414 9.29585 206.159 9.36959 205.82 9.36959ZM214.495 9.26232H210.01V11.6758H214.139C214.443 11.6758 214.669 11.7451 214.817 11.8836C214.969 12.0177 215.045 12.1965 215.045 12.42C215.045 12.6434 214.971 12.8267 214.823 12.9697C214.676 13.1082 214.448 13.1775 214.139 13.1775H210.01V15.9731H214.649C214.962 15.9731 215.196 16.0469 215.353 16.1944C215.514 16.3374 215.594 16.5296 215.594 16.7709C215.594 17.0033 215.514 17.1933 215.353 17.3408C215.196 17.4838 214.962 17.5553 214.649 17.5553H209.239C208.805 17.5553 208.492 17.4592 208.3 17.267C208.112 17.0748 208.019 16.7642 208.019 16.3352V8.94723C208.019 8.66119 208.061 8.42878 208.146 8.25001C208.231 8.06676 208.363 7.93491 208.542 7.85446C208.725 7.76954 208.957 7.72709 209.239 7.72709H214.495C214.812 7.72709 215.047 7.7986 215.199 7.94162C215.355 8.08017 215.433 8.26341 215.433 8.49135C215.433 8.72376 215.355 8.91148 215.199 9.0545C215.047 9.19305 214.812 9.26232 214.495 9.26232ZM222.56 8.76622V15.9195H226.596C226.917 15.9195 227.163 15.9977 227.333 16.1541C227.507 16.3106 227.595 16.5072 227.595 16.7441C227.595 16.9854 227.51 17.1821 227.34 17.3341C227.17 17.4816 226.922 17.5553 226.596 17.5553H221.789C221.355 17.5553 221.042 17.4592 220.85 17.267C220.663 17.0748 220.569 16.7642 220.569 16.3352V8.76622C220.569 8.36397 220.658 8.06229 220.837 7.86117C221.02 7.66004 221.259 7.55948 221.554 7.55948C221.854 7.55948 222.095 7.66004 222.278 7.86117C222.466 8.05782 222.56 8.35951 222.56 8.76622ZM228.882 10.4422H229.083V9.34277C229.083 9.04779 229.09 8.81762 229.103 8.65225C229.121 8.48241 229.166 8.33716 229.237 8.21648C229.309 8.09134 229.411 7.99078 229.545 7.9148C229.68 7.83435 229.829 7.79413 229.995 7.79413C230.227 7.79413 230.437 7.88128 230.625 8.05559C230.75 8.17179 230.828 8.31481 230.859 8.48465C230.895 8.65002 230.913 8.88689 230.913 9.19528V10.4422H231.584C231.843 10.4422 232.039 10.5048 232.173 10.63C232.312 10.7506 232.381 10.9071 232.381 11.0992C232.381 11.3451 232.283 11.5171 232.086 11.6155C231.894 11.7138 231.617 11.763 231.255 11.763H230.913V15.1284C230.913 15.4145 230.922 15.6357 230.94 15.7921C230.962 15.9441 231.016 16.0692 231.101 16.1675C231.19 16.2614 231.333 16.3083 231.53 16.3083C231.637 16.3083 231.782 16.2905 231.966 16.2547C232.149 16.2145 232.292 16.1944 232.395 16.1944C232.542 16.1944 232.674 16.2547 232.79 16.3754C232.911 16.4916 232.971 16.6368 232.971 16.8111C232.971 17.1061 232.81 17.3318 232.489 17.4883C232.167 17.6447 231.704 17.7229 231.101 17.7229C230.529 17.7229 230.095 17.6268 229.8 17.4346C229.505 17.2424 229.311 16.9765 229.217 16.6368C229.128 16.2972 229.083 15.8435 229.083 15.2759V11.763H228.842C228.578 11.763 228.377 11.7004 228.238 11.5752C228.1 11.4501 228.03 11.2914 228.03 11.0992C228.03 10.9071 228.102 10.7506 228.245 10.63C228.392 10.5048 228.605 10.4422 228.882 10.4422ZM238.663 16.6771V16.496C238.417 16.7776 238.174 17.0078 237.932 17.1866C237.695 17.3609 237.436 17.4927 237.155 17.5821C236.878 17.676 236.574 17.7229 236.243 17.7229C235.805 17.7229 235.398 17.6313 235.023 17.448C234.652 17.2603 234.33 16.9944 234.057 16.6502C233.785 16.3061 233.577 15.9016 233.434 15.4368C233.295 14.972 233.226 14.4692 233.226 13.9284C233.226 12.7842 233.505 11.8926 234.064 11.2534C234.623 10.6143 235.358 10.2948 236.27 10.2948C236.797 10.2948 237.242 10.3864 237.604 10.5696C237.966 10.7484 238.319 11.0255 238.663 11.4009V8.69918C238.663 8.32375 238.737 8.03994 238.884 7.84776C239.036 7.65557 239.251 7.55948 239.528 7.55948C239.805 7.55948 240.017 7.64887 240.165 7.82765C240.317 8.00195 240.393 8.26118 240.393 8.60532V16.6771C240.393 17.0257 240.312 17.2871 240.151 17.4614C239.99 17.6357 239.783 17.7229 239.528 17.7229C239.278 17.7229 239.07 17.6335 238.904 17.4547C238.744 17.2715 238.663 17.0123 238.663 16.6771ZM235.063 13.9887C235.063 14.4848 235.139 14.9072 235.291 15.2558C235.447 15.6044 235.66 15.8681 235.928 16.0469C236.196 16.2212 236.489 16.3083 236.806 16.3083C237.128 16.3083 237.421 16.2257 237.684 16.0603C237.952 15.8904 238.165 15.6335 238.321 15.2893C238.482 14.9407 238.563 14.5072 238.563 13.9887C238.563 13.5016 238.482 13.0837 238.321 12.735C238.165 12.382 237.95 12.1138 237.678 11.9306C237.409 11.7428 237.114 11.649 236.793 11.649C236.457 11.649 236.158 11.7451 235.894 11.9373C235.631 12.125 235.425 12.3976 235.277 12.7552C235.134 13.1082 235.063 13.5194 235.063 13.9887ZM243.443 17.7229C243.166 17.7229 242.927 17.6335 242.726 17.4547C242.525 17.276 242.424 17.0257 242.424 16.7039C242.424 16.4312 242.52 16.1966 242.712 15.9999C242.905 15.8033 243.141 15.705 243.423 15.705C243.705 15.705 243.944 15.8033 244.14 15.9999C244.341 16.1921 244.442 16.4268 244.442 16.7039C244.442 17.0212 244.341 17.2715 244.14 17.4547C243.944 17.6335 243.711 17.7229 243.443 17.7229Z" fill="white"></path><path d="M85.8932 30.9383V26.3702C85.8932 26.1329 85.9472 25.9549 86.0553 25.8363C86.1634 25.7176 86.3032 25.6583 86.4746 25.6583C86.6512 25.6583 86.7936 25.7176 86.9017 25.8363C87.0125 25.9523 87.0678 26.1302 87.0678 26.3702V30.9383C87.0678 31.1782 87.0125 31.3575 86.9017 31.4762C86.7936 31.5948 86.6512 31.6542 86.4746 31.6542C86.3058 31.6542 86.1661 31.5948 86.0553 31.4762C85.9472 31.3549 85.8932 31.1756 85.8932 30.9383ZM91.9009 29.5382V30.9739C91.9009 31.2007 91.8495 31.3707 91.7467 31.4841C91.6438 31.5975 91.5081 31.6542 91.3393 31.6542C91.1758 31.6542 91.0427 31.5975 90.9398 31.4841C90.8396 31.3707 90.7896 31.2007 90.7896 30.9739V29.2534C90.7896 28.9819 90.7803 28.7709 90.7619 28.6206C90.7434 28.4703 90.6933 28.3477 90.6116 28.2528C90.5298 28.1552 90.4006 28.1065 90.224 28.1065C89.8707 28.1065 89.6373 28.2278 89.5239 28.4703C89.4132 28.7129 89.3578 29.061 89.3578 29.5145V30.9739C89.3578 31.198 89.3064 31.3681 89.2036 31.4841C89.1034 31.5975 88.9702 31.6542 88.8041 31.6542C88.6406 31.6542 88.5062 31.5975 88.4007 31.4841C88.2979 31.3681 88.2464 31.198 88.2464 30.9739V27.885C88.2464 27.682 88.2926 27.5277 88.3849 27.4222C88.4798 27.3168 88.6037 27.264 88.7566 27.264C88.9043 27.264 89.0269 27.3141 89.1245 27.4143C89.2247 27.5119 89.2748 27.6477 89.2748 27.8217V27.9245C89.462 27.7004 89.6624 27.5356 89.8759 27.4302C90.0895 27.3247 90.3268 27.2719 90.5878 27.2719C90.8594 27.2719 91.0928 27.326 91.2879 27.4341C91.483 27.5422 91.6438 27.7057 91.7704 27.9245C91.9523 27.7031 92.1475 27.5396 92.3558 27.4341C92.5641 27.326 92.7948 27.2719 93.0479 27.2719C93.3432 27.2719 93.5977 27.33 93.8112 27.446C94.0248 27.562 94.1843 27.7281 94.2898 27.9443C94.3821 28.1394 94.4282 28.4466 94.4282 28.8658V30.9739C94.4282 31.2007 94.3768 31.3707 94.274 31.4841C94.1711 31.5975 94.0354 31.6542 93.8666 31.6542C93.7031 31.6542 93.5687 31.5975 93.4632 31.4841C93.3604 31.3681 93.3089 31.198 93.3089 30.9739V29.1585C93.3089 28.9265 93.2984 28.7406 93.2773 28.6009C93.2588 28.4611 93.2061 28.3438 93.1191 28.2489C93.0321 28.1539 92.9002 28.1065 92.7236 28.1065C92.5812 28.1065 92.4454 28.1487 92.3162 28.233C92.1896 28.3174 92.0908 28.4308 92.0196 28.5732C91.9405 28.7551 91.9009 29.0768 91.9009 29.5382ZM96.473 27.8692V27.9997C96.676 27.7492 96.887 27.5659 97.1058 27.4499C97.3247 27.3313 97.5725 27.2719 97.8494 27.2719C98.1816 27.2719 98.4875 27.3576 98.7669 27.529C99.0464 27.7004 99.2666 27.9509 99.4274 28.2805C99.5909 28.6101 99.6727 29.0003 99.6727 29.4512C99.6727 29.7834 99.6252 30.0893 99.5303 30.3688C99.438 30.6456 99.3101 30.879 99.1466 31.0688C98.9832 31.256 98.7894 31.401 98.5652 31.5039C98.3438 31.6041 98.1051 31.6542 97.8494 31.6542C97.5409 31.6542 97.2812 31.5922 97.0702 31.4683C96.8619 31.3444 96.6628 31.1624 96.473 30.9225V32.5441C96.473 33.0187 96.3003 33.256 95.9549 33.256C95.7519 33.256 95.6174 33.194 95.5515 33.0701C95.4855 32.9488 95.4526 32.7708 95.4526 32.5362V27.8771C95.4526 27.6714 95.4974 27.5185 95.5871 27.4183C95.6767 27.3155 95.7993 27.264 95.9549 27.264C96.1078 27.264 96.2317 27.3168 96.3267 27.4222C96.4242 27.5251 96.473 27.674 96.473 27.8692ZM98.589 29.4393C98.589 29.1546 98.5455 28.9107 98.4584 28.7076C98.3714 28.502 98.2501 28.3451 98.0946 28.237C97.9417 28.1262 97.7716 28.0709 97.5844 28.0709C97.2864 28.0709 97.0346 28.1882 96.829 28.4229C96.6259 28.6575 96.5244 29.003 96.5244 29.4591C96.5244 29.8889 96.6259 30.2238 96.829 30.4637C97.032 30.701 97.2838 30.8197 97.5844 30.8197C97.7637 30.8197 97.9298 30.7682 98.0827 30.6654C98.2356 30.5599 98.3583 30.4031 98.4505 30.1948C98.5428 29.9865 98.589 29.7346 98.589 29.4393ZM104.581 29.4591C104.581 29.7808 104.531 30.0774 104.431 30.349C104.33 30.6206 104.185 30.8539 103.996 31.049C103.806 31.2442 103.579 31.3945 103.315 31.4999C103.052 31.6028 102.755 31.6542 102.425 31.6542C102.098 31.6542 101.804 31.6014 101.543 31.496C101.282 31.3905 101.056 31.2402 100.863 31.0451C100.673 30.8473 100.528 30.6153 100.428 30.349C100.331 30.0801 100.282 29.7834 100.282 29.4591C100.282 29.1322 100.332 28.8329 100.432 28.5613C100.532 28.2897 100.676 28.0577 100.863 27.8652C101.05 27.6727 101.277 27.5251 101.543 27.4222C101.81 27.3168 102.104 27.264 102.425 27.264C102.752 27.264 103.049 27.3168 103.315 27.4222C103.582 27.5277 103.81 27.678 104 27.8731C104.189 28.0682 104.333 28.3003 104.431 28.5692C104.531 28.8382 104.581 29.1348 104.581 29.4591ZM103.497 29.4591C103.497 29.0188 103.4 28.676 103.205 28.4308C103.012 28.1856 102.752 28.063 102.425 28.063C102.214 28.063 102.029 28.1183 101.868 28.2291C101.707 28.3372 101.583 28.498 101.496 28.7116C101.409 28.9252 101.365 29.1743 101.365 29.4591C101.365 29.7412 101.408 29.9878 101.492 30.1987C101.579 30.4096 101.702 30.5718 101.86 30.6852C102.021 30.7959 102.209 30.8513 102.425 30.8513C102.752 30.8513 103.012 30.7287 103.205 30.4835C103.4 30.2356 103.497 29.8942 103.497 29.4591ZM106.507 30.0959V30.9976C106.507 31.2165 106.456 31.3813 106.353 31.492C106.25 31.6001 106.119 31.6542 105.961 31.6542C105.806 31.6542 105.678 31.5988 105.578 31.4881C105.477 31.3773 105.427 31.2138 105.427 30.9976V27.9918C105.427 27.5066 105.603 27.264 105.953 27.264C106.133 27.264 106.262 27.3207 106.341 27.4341C106.42 27.5475 106.464 27.7149 106.471 27.9364C106.601 27.7149 106.732 27.5475 106.867 27.4341C107.004 27.3207 107.186 27.264 107.413 27.264C107.64 27.264 107.86 27.3207 108.073 27.4341C108.287 27.5475 108.394 27.6978 108.394 27.885C108.394 28.0168 108.347 28.1262 108.255 28.2133C108.166 28.2976 108.068 28.3398 107.963 28.3398C107.923 28.3398 107.827 28.3161 107.674 28.2686C107.523 28.2185 107.39 28.1935 107.274 28.1935C107.116 28.1935 106.987 28.2357 106.887 28.32C106.787 28.4018 106.709 28.5244 106.653 28.6879C106.598 28.8513 106.56 29.0465 106.539 29.2732C106.518 29.4973 106.507 29.7716 106.507 30.0959ZM109.149 27.359H109.268V26.7103C109.268 26.5363 109.272 26.4005 109.28 26.303C109.29 26.2028 109.316 26.1171 109.359 26.0459C109.401 25.972 109.461 25.9127 109.541 25.8679C109.62 25.8204 109.708 25.7967 109.806 25.7967C109.943 25.7967 110.067 25.8481 110.177 25.951C110.251 26.0195 110.297 26.1039 110.316 26.2041C110.337 26.3016 110.347 26.4414 110.347 26.6233V27.359H110.743C110.896 27.359 111.012 27.3959 111.091 27.4697C111.173 27.5409 111.214 27.6332 111.214 27.7466C111.214 27.8916 111.156 27.9931 111.04 28.0511C110.926 28.1091 110.763 28.1381 110.549 28.1381H110.347V30.1236C110.347 30.2923 110.353 30.4228 110.363 30.5151C110.376 30.6048 110.408 30.6786 110.458 30.7366C110.511 30.792 110.595 30.8197 110.711 30.8197C110.775 30.8197 110.86 30.8091 110.968 30.788C111.076 30.7643 111.161 30.7524 111.221 30.7524C111.308 30.7524 111.386 30.788 111.455 30.8592C111.526 30.9278 111.562 31.0135 111.562 31.1163C111.562 31.2903 111.467 31.4235 111.277 31.5157C111.087 31.608 110.814 31.6542 110.458 31.6542C110.121 31.6542 109.865 31.5975 109.691 31.4841C109.517 31.3707 109.402 31.2138 109.347 31.0135C109.294 30.8131 109.268 30.5454 109.268 30.2106V28.1381H109.125C108.97 28.1381 108.851 28.1012 108.769 28.0274C108.688 27.9535 108.647 27.8599 108.647 27.7466C108.647 27.6332 108.689 27.5409 108.773 27.4697C108.86 27.3959 108.986 27.359 109.149 27.359ZM114.702 31.6542C114.538 31.6542 114.397 31.6014 114.279 31.496C114.16 31.3905 114.101 31.2428 114.101 31.053C114.101 30.8922 114.157 30.7537 114.271 30.6377C114.384 30.5217 114.524 30.4637 114.69 30.4637C114.856 30.4637 114.997 30.5217 115.113 30.6377C115.232 30.7511 115.291 30.8895 115.291 31.053C115.291 31.2402 115.232 31.3879 115.113 31.496C114.997 31.6014 114.86 31.6542 114.702 31.6542ZM122.446 26.6629H119.8V28.0867H122.236C122.416 28.0867 122.549 28.1276 122.636 28.2093C122.725 28.2884 122.77 28.3939 122.77 28.5257C122.77 28.6575 122.727 28.7656 122.64 28.85C122.553 28.9318 122.418 28.9726 122.236 28.9726H119.8V30.6219H122.537C122.722 30.6219 122.86 30.6654 122.952 30.7524C123.047 30.8368 123.095 30.9502 123.095 31.0926C123.095 31.2297 123.047 31.3417 122.952 31.4287C122.86 31.5131 122.722 31.5553 122.537 31.5553H119.345C119.089 31.5553 118.905 31.4986 118.792 31.3852C118.681 31.2719 118.625 31.0886 118.625 30.8355V26.477C118.625 26.3082 118.65 26.1711 118.701 26.0656C118.751 25.9575 118.828 25.8798 118.934 25.8323C119.042 25.7822 119.179 25.7572 119.345 25.7572H122.446C122.633 25.7572 122.772 25.7993 122.861 25.8837C122.954 25.9655 123 26.0736 123 26.208C123 26.3451 122.954 26.4559 122.861 26.5403C122.772 26.622 122.633 26.6629 122.446 26.6629ZM126.294 31.2073L125.511 30.0563L124.708 31.2073C124.592 31.3681 124.493 31.4828 124.412 31.5513C124.333 31.6199 124.231 31.6542 124.107 31.6542C123.97 31.6542 123.853 31.612 123.755 31.5276C123.66 31.4406 123.613 31.3417 123.613 31.231C123.613 31.1176 123.687 30.9554 123.834 30.7445L124.811 29.3444L123.945 28.1777C123.795 27.9852 123.72 27.8177 123.72 27.6754C123.72 27.5646 123.764 27.4684 123.854 27.3866C123.944 27.3049 124.061 27.264 124.206 27.264C124.333 27.264 124.437 27.2996 124.518 27.3708C124.603 27.442 124.7 27.5541 124.811 27.707L125.511 28.6641L126.191 27.707C126.305 27.5488 126.402 27.4354 126.484 27.3669C126.569 27.2983 126.673 27.264 126.797 27.264C126.939 27.264 127.056 27.3049 127.149 27.3866C127.244 27.4657 127.291 27.562 127.291 27.6754C127.291 27.7571 127.271 27.8362 127.232 27.9127C127.195 27.9865 127.137 28.0748 127.058 28.1777L126.191 29.3444L127.168 30.7445C127.321 30.9634 127.398 31.1281 127.398 31.2389C127.398 31.3523 127.35 31.4498 127.255 31.5316C127.16 31.6133 127.043 31.6542 126.903 31.6542C126.779 31.6542 126.674 31.6186 126.587 31.5474C126.503 31.4762 126.405 31.3628 126.294 31.2073ZM129.174 27.8692V27.9997C129.377 27.7492 129.588 27.5659 129.806 27.4499C130.025 27.3313 130.273 27.2719 130.55 27.2719C130.882 27.2719 131.188 27.3576 131.468 27.529C131.747 27.7004 131.967 27.9509 132.128 28.2805C132.292 28.6101 132.373 29.0003 132.373 29.4512C132.373 29.7834 132.326 30.0893 132.231 30.3688C132.139 30.6456 132.011 30.879 131.847 31.0688C131.684 31.256 131.49 31.401 131.266 31.5039C131.044 31.6041 130.806 31.6542 130.55 31.6542C130.241 31.6542 129.982 31.5922 129.771 31.4683C129.563 31.3444 129.363 31.1624 129.174 30.9225V32.5441C129.174 33.0187 129.001 33.256 128.655 33.256C128.452 33.256 128.318 33.194 128.252 33.0701C128.186 32.9488 128.153 32.7708 128.153 32.5362V27.8771C128.153 27.6714 128.198 27.5185 128.288 27.4183C128.377 27.3155 128.5 27.264 128.655 27.264C128.808 27.264 128.932 27.3168 129.027 27.4222C129.125 27.5251 129.174 27.674 129.174 27.8692ZM131.29 29.4393C131.29 29.1546 131.246 28.9107 131.159 28.7076C131.072 28.502 130.951 28.3451 130.795 28.237C130.642 28.1262 130.472 28.0709 130.285 28.0709C129.987 28.0709 129.735 28.1882 129.53 28.4229C129.327 28.6575 129.225 29.003 129.225 29.4591C129.225 29.8889 129.327 30.2238 129.53 30.4637C129.733 30.701 129.984 30.8197 130.285 30.8197C130.464 30.8197 130.63 30.7682 130.783 30.6654C130.936 30.5599 131.059 30.4031 131.151 30.1948C131.243 29.9865 131.29 29.7346 131.29 29.4393ZM137.281 29.4591C137.281 29.7808 137.231 30.0774 137.131 30.349C137.031 30.6206 136.886 30.8539 136.696 31.049C136.506 31.2442 136.28 31.3945 136.016 31.4999C135.752 31.6028 135.456 31.6542 135.126 31.6542C134.799 31.6542 134.505 31.6014 134.244 31.496C133.983 31.3905 133.756 31.2402 133.564 31.0451C133.374 30.8473 133.229 30.6153 133.129 30.349C133.031 30.0801 132.982 29.7834 132.982 29.4591C132.982 29.1322 133.032 28.8329 133.133 28.5613C133.233 28.2897 133.377 28.0577 133.564 27.8652C133.751 27.6727 133.978 27.5251 134.244 27.4222C134.51 27.3168 134.804 27.264 135.126 27.264C135.453 27.264 135.75 27.3168 136.016 27.4222C136.282 27.5277 136.51 27.678 136.7 27.8731C136.89 28.0682 137.034 28.3003 137.131 28.5692C137.231 28.8382 137.281 29.1348 137.281 29.4591ZM136.198 29.4591C136.198 29.0188 136.1 28.676 135.905 28.4308C135.713 28.1856 135.453 28.063 135.126 28.063C134.915 28.063 134.729 28.1183 134.568 28.2291C134.407 28.3372 134.284 28.498 134.197 28.7116C134.11 28.9252 134.066 29.1743 134.066 29.4591C134.066 29.7412 134.108 29.9878 134.193 30.1987C134.28 30.4096 134.402 30.5718 134.56 30.6852C134.721 30.7959 134.91 30.8513 135.126 30.8513C135.453 30.8513 135.713 30.7287 135.905 30.4835C136.1 30.2356 136.198 29.8942 136.198 29.4591ZM139.208 30.0959V30.9976C139.208 31.2165 139.156 31.3813 139.053 31.492C138.951 31.6001 138.82 31.6542 138.662 31.6542C138.506 31.6542 138.378 31.5988 138.278 31.4881C138.178 31.3773 138.128 31.2138 138.128 30.9976V27.9918C138.128 27.5066 138.303 27.264 138.654 27.264C138.833 27.264 138.962 27.3207 139.042 27.4341C139.121 27.5475 139.164 27.7149 139.172 27.9364C139.301 27.7149 139.433 27.5475 139.568 27.4341C139.705 27.3207 139.887 27.264 140.113 27.264C140.34 27.264 140.56 27.3207 140.774 27.4341C140.987 27.5475 141.094 27.6978 141.094 27.885C141.094 28.0168 141.048 28.1262 140.956 28.2133C140.866 28.2976 140.769 28.3398 140.663 28.3398C140.624 28.3398 140.527 28.3161 140.374 28.2686C140.224 28.2185 140.091 28.1935 139.975 28.1935C139.817 28.1935 139.688 28.2357 139.587 28.32C139.487 28.4018 139.409 28.5244 139.354 28.6879C139.299 28.8513 139.26 29.0465 139.239 29.2732C139.218 29.4973 139.208 29.7716 139.208 30.0959ZM141.85 27.359H141.968V26.7103C141.968 26.5363 141.972 26.4005 141.98 26.303C141.991 26.2028 142.017 26.1171 142.059 26.0459C142.101 25.972 142.162 25.9127 142.241 25.8679C142.32 25.8204 142.409 25.7967 142.506 25.7967C142.643 25.7967 142.767 25.8481 142.878 25.951C142.952 26.0195 142.998 26.1039 143.016 26.2041C143.037 26.3016 143.048 26.4414 143.048 26.6233V27.359H143.444C143.596 27.359 143.712 27.3959 143.792 27.4697C143.873 27.5409 143.914 27.6332 143.914 27.7466C143.914 27.8916 143.856 27.9931 143.74 28.0511C143.627 28.1091 143.463 28.1381 143.25 28.1381H143.048V30.1236C143.048 30.2923 143.053 30.4228 143.064 30.5151C143.077 30.6048 143.109 30.6786 143.159 30.7366C143.211 30.792 143.296 30.8197 143.412 30.8197C143.475 30.8197 143.561 30.8091 143.669 30.788C143.777 30.7643 143.861 30.7524 143.922 30.7524C144.009 30.7524 144.087 30.788 144.155 30.8592C144.227 30.9278 144.262 31.0135 144.262 31.1163C144.262 31.2903 144.167 31.4235 143.977 31.5157C143.788 31.608 143.515 31.6542 143.159 31.6542C142.821 31.6542 142.565 31.5975 142.391 31.4841C142.217 31.3707 142.103 31.2138 142.047 31.0135C141.995 30.8131 141.968 30.5454 141.968 30.2106V28.1381H141.826C141.67 28.1381 141.552 28.1012 141.47 28.0274C141.388 27.9535 141.347 27.8599 141.347 27.7466C141.347 27.6332 141.39 27.5409 141.474 27.4697C141.561 27.3959 141.686 27.359 141.85 27.359ZM147.403 31.6542C147.239 31.6542 147.098 31.6014 146.979 31.496C146.861 31.3905 146.801 31.2428 146.801 31.053C146.801 30.8922 146.858 30.7537 146.971 30.6377C147.085 30.5217 147.225 30.4637 147.391 30.4637C147.557 30.4637 147.698 30.5217 147.814 30.6377C147.933 30.7511 147.992 30.8895 147.992 31.053C147.992 31.2402 147.933 31.3879 147.814 31.496C147.698 31.6014 147.561 31.6542 147.403 31.6542ZM155.091 26.7261H153.81V30.9383C153.81 31.1809 153.756 31.3615 153.648 31.4802C153.54 31.5962 153.4 31.6542 153.228 31.6542C153.054 31.6542 152.912 31.5948 152.801 31.4762C152.693 31.3575 152.639 31.1782 152.639 30.9383V26.7261H151.358C151.157 26.7261 151.008 26.6826 150.911 26.5956C150.813 26.506 150.764 26.3886 150.764 26.2436C150.764 26.0933 150.814 25.9747 150.915 25.8877C151.017 25.8007 151.165 25.7572 151.358 25.7572H155.091C155.294 25.7572 155.445 25.802 155.542 25.8916C155.642 25.9813 155.692 26.0986 155.692 26.2436C155.692 26.3886 155.642 26.506 155.542 26.5956C155.442 26.6826 155.292 26.7261 155.091 26.7261ZM157.077 30.0959V30.9976C157.077 31.2165 157.025 31.3813 156.922 31.492C156.82 31.6001 156.689 31.6542 156.531 31.6542C156.375 31.6542 156.247 31.5988 156.147 31.4881C156.047 31.3773 155.997 31.2138 155.997 30.9976V27.9918C155.997 27.5066 156.172 27.264 156.523 27.264C156.702 27.264 156.831 27.3207 156.911 27.4341C156.99 27.5475 157.033 27.7149 157.041 27.9364C157.17 27.7149 157.302 27.5475 157.437 27.4341C157.574 27.3207 157.756 27.264 157.982 27.264C158.209 27.264 158.429 27.3207 158.643 27.4341C158.856 27.5475 158.963 27.6978 158.963 27.885C158.963 28.0168 158.917 28.1262 158.825 28.2133C158.735 28.2976 158.638 28.3398 158.532 28.3398C158.493 28.3398 158.396 28.3161 158.243 28.2686C158.093 28.2185 157.96 28.1935 157.844 28.1935C157.686 28.1935 157.557 28.2357 157.456 28.32C157.356 28.4018 157.278 28.5244 157.223 28.6879C157.168 28.8513 157.129 29.0465 157.108 29.2732C157.087 29.4973 157.077 29.7716 157.077 30.0959ZM162.08 31.0451C161.819 31.2481 161.566 31.401 161.32 31.5039C161.078 31.6041 160.805 31.6542 160.502 31.6542C160.225 31.6542 159.981 31.6001 159.77 31.492C159.562 31.3813 159.401 31.2323 159.288 31.0451C159.174 30.8579 159.117 30.6549 159.117 30.436C159.117 30.1407 159.211 29.8889 159.398 29.6806C159.586 29.4723 159.843 29.3325 160.17 29.2614C160.238 29.2455 160.408 29.2099 160.68 29.1546C160.951 29.0992 161.183 29.0491 161.376 29.0043C161.571 28.9568 161.782 28.9001 162.009 28.8342C161.995 28.5494 161.937 28.3411 161.835 28.2093C161.734 28.0748 161.525 28.0076 161.206 28.0076C160.932 28.0076 160.725 28.0458 160.585 28.1223C160.448 28.1988 160.329 28.3135 160.229 28.4664C160.131 28.6193 160.061 28.7208 160.019 28.7709C159.98 28.8184 159.893 28.8421 159.758 28.8421C159.637 28.8421 159.531 28.8039 159.442 28.7274C159.355 28.6483 159.311 28.5481 159.311 28.4268C159.311 28.237 159.379 28.0524 159.513 27.8731C159.647 27.6938 159.857 27.5462 160.142 27.4302C160.427 27.3141 160.781 27.2561 161.206 27.2561C161.68 27.2561 162.053 27.3128 162.325 27.4262C162.597 27.5369 162.788 27.7136 162.899 27.9562C163.012 28.1988 163.069 28.5204 163.069 28.9212C163.069 29.1743 163.067 29.3892 163.065 29.5659C163.065 29.7426 163.063 29.939 163.061 30.1552C163.061 30.3582 163.094 30.5705 163.16 30.792C163.228 31.0108 163.262 31.1519 163.262 31.2152C163.262 31.3259 163.21 31.4274 163.104 31.5197C163.001 31.6094 162.884 31.6542 162.752 31.6542C162.641 31.6542 162.532 31.6028 162.424 31.4999C162.316 31.3945 162.201 31.2428 162.08 31.0451ZM162.009 29.4828C161.85 29.5408 161.62 29.6028 161.317 29.6687C161.016 29.732 160.808 29.7795 160.692 29.8111C160.576 29.8401 160.465 29.8994 160.359 29.9891C160.254 30.0761 160.201 30.1987 160.201 30.3569C160.201 30.5204 160.263 30.6601 160.387 30.7761C160.511 30.8895 160.673 30.9462 160.874 30.9462C161.087 30.9462 161.284 30.9001 161.463 30.8078C161.645 30.7129 161.778 30.5916 161.862 30.4439C161.96 30.2804 162.009 30.0115 162.009 29.6371V29.4828ZM167.127 31.0372V30.9304C166.981 31.0965 166.838 31.2323 166.695 31.3378C166.556 31.4406 166.403 31.5184 166.237 31.5711C166.073 31.6265 165.894 31.6542 165.699 31.6542C165.44 31.6542 165.2 31.6001 164.979 31.492C164.76 31.3813 164.57 31.2244 164.409 31.0214C164.249 30.8183 164.126 30.5797 164.042 30.3055C163.96 30.0313 163.919 29.7346 163.919 29.4156C163.919 28.7406 164.084 28.2146 164.413 27.8375C164.743 27.4605 165.177 27.2719 165.715 27.2719C166.026 27.2719 166.288 27.326 166.502 27.4341C166.715 27.5396 166.923 27.7031 167.127 27.9245V26.3306C167.127 26.1092 167.17 25.9417 167.257 25.8283C167.347 25.715 167.473 25.6583 167.637 25.6583C167.8 25.6583 167.925 25.711 168.012 25.8165C168.102 25.9193 168.147 26.0722 168.147 26.2753V31.0372C168.147 31.2428 168.099 31.3971 168.005 31.4999C167.91 31.6028 167.787 31.6542 167.637 31.6542C167.489 31.6542 167.366 31.6014 167.269 31.496C167.174 31.3879 167.127 31.2349 167.127 31.0372ZM165.003 29.4512C165.003 29.7439 165.047 29.993 165.137 30.1987C165.229 30.4044 165.355 30.5599 165.513 30.6654C165.671 30.7682 165.844 30.8197 166.031 30.8197C166.221 30.8197 166.394 30.7709 166.549 30.6733C166.707 30.5731 166.833 30.4215 166.925 30.2185C167.02 30.0128 167.067 29.7571 167.067 29.4512C167.067 29.1638 167.02 28.9173 166.925 28.7116C166.833 28.5033 166.706 28.3451 166.545 28.237C166.387 28.1262 166.213 28.0709 166.023 28.0709C165.825 28.0709 165.649 28.1276 165.493 28.2409C165.338 28.3517 165.216 28.5125 165.129 28.7235C165.045 28.9318 165.003 29.1743 165.003 29.4512ZM170.31 27.8771V30.9976C170.31 31.2138 170.259 31.3773 170.156 31.4881C170.053 31.5988 169.923 31.6542 169.765 31.6542C169.606 31.6542 169.477 31.5975 169.377 31.4841C169.279 31.3707 169.231 31.2086 169.231 30.9976V27.9087C169.231 27.6951 169.279 27.5343 169.377 27.4262C169.477 27.3181 169.606 27.264 169.765 27.264C169.923 27.264 170.053 27.3181 170.156 27.4262C170.259 27.5343 170.31 27.6846 170.31 27.8771ZM169.776 26.7617C169.626 26.7617 169.497 26.7156 169.389 26.6233C169.283 26.531 169.231 26.4005 169.231 26.2318C169.231 26.0788 169.285 25.9536 169.393 25.856C169.504 25.7558 169.631 25.7057 169.776 25.7057C169.916 25.7057 170.04 25.7506 170.148 25.8402C170.256 25.9299 170.31 26.0604 170.31 26.2318C170.31 26.3979 170.258 26.5284 170.152 26.6233C170.047 26.7156 169.921 26.7617 169.776 26.7617ZM172.411 27.8613V27.9918C172.6 27.7413 172.807 27.558 173.031 27.442C173.258 27.3234 173.518 27.264 173.811 27.264C174.095 27.264 174.35 27.326 174.574 27.4499C174.798 27.5739 174.965 27.7492 175.076 27.976C175.147 28.1078 175.194 28.2502 175.215 28.4031C175.236 28.556 175.246 28.7511 175.246 28.9885V30.9976C175.246 31.2138 175.196 31.3773 175.096 31.4881C174.998 31.5988 174.871 31.6542 174.712 31.6542C174.552 31.6542 174.421 31.5975 174.321 31.4841C174.221 31.3707 174.171 31.2086 174.171 30.9976V29.1981C174.171 28.8421 174.12 28.5705 174.02 28.3833C173.923 28.1935 173.726 28.0986 173.431 28.0986C173.238 28.0986 173.063 28.1566 172.905 28.2726C172.747 28.386 172.631 28.5428 172.557 28.7432C172.504 28.9041 172.478 29.2047 172.478 29.645V30.9976C172.478 31.2165 172.426 31.3813 172.323 31.492C172.223 31.6001 172.093 31.6542 171.932 31.6542C171.776 31.6542 171.648 31.5975 171.548 31.4841C171.448 31.3707 171.398 31.2086 171.398 30.9976V27.8771C171.398 27.6714 171.443 27.5185 171.532 27.4183C171.622 27.3155 171.745 27.264 171.9 27.264C171.995 27.264 172.081 27.2864 172.157 27.3313C172.234 27.3761 172.294 27.4433 172.339 27.533C172.387 27.6226 172.411 27.7321 172.411 27.8613ZM180.297 28.0551V31.1914C180.297 31.55 180.259 31.8585 180.182 32.1169C180.106 32.3753 179.983 32.5889 179.814 32.7576C179.646 32.9264 179.424 33.0516 179.15 33.1334C178.878 33.2151 178.54 33.256 178.134 33.256C177.762 33.256 177.429 33.2032 177.137 33.0978C176.844 32.9949 176.619 32.8605 176.461 32.6944C176.302 32.5309 176.223 32.3621 176.223 32.1881C176.223 32.0563 176.268 31.9482 176.358 31.8638C176.447 31.7821 176.555 31.7412 176.682 31.7412C176.84 31.7412 176.979 31.8111 177.097 31.9508C177.155 32.022 177.215 32.0932 177.275 32.1644C177.339 32.2382 177.407 32.3002 177.481 32.3503C177.557 32.403 177.648 32.4412 177.754 32.465C177.859 32.4913 177.981 32.5045 178.118 32.5045C178.397 32.5045 178.613 32.465 178.766 32.3859C178.922 32.3094 179.03 32.2013 179.091 32.0615C179.154 31.9218 179.191 31.7715 179.201 31.6107C179.212 31.4525 179.22 31.1967 179.225 30.8434C179.059 31.0754 178.867 31.2521 178.648 31.3734C178.431 31.4947 178.173 31.5553 177.872 31.5553C177.511 31.5553 177.195 31.463 176.923 31.2784C176.654 31.0939 176.447 30.8355 176.302 30.5032C176.157 30.171 176.085 29.7874 176.085 29.3523C176.085 29.028 176.128 28.7353 176.215 28.4743C176.305 28.2133 176.431 27.9931 176.595 27.8138C176.758 27.6345 176.947 27.5 177.161 27.4104C177.374 27.3181 177.609 27.2719 177.865 27.2719C178.17 27.2719 178.435 27.3313 178.66 27.4499C178.884 27.5659 179.092 27.7492 179.284 27.9997V27.8533C179.284 27.6661 179.331 27.5211 179.423 27.4183C179.515 27.3155 179.634 27.264 179.779 27.264C179.987 27.264 180.126 27.3326 180.194 27.4697C180.263 27.6042 180.297 27.7993 180.297 28.0551ZM177.168 29.4235C177.168 29.8612 177.263 30.1921 177.453 30.4162C177.646 30.6404 177.894 30.7524 178.197 30.7524C178.376 30.7524 178.545 30.705 178.703 30.61C178.864 30.5125 178.994 30.3675 179.095 30.175C179.195 29.9799 179.245 29.7439 179.245 29.467C179.245 29.0267 179.147 28.6839 178.952 28.4387C178.76 28.1935 178.505 28.0709 178.189 28.0709C177.88 28.0709 177.633 28.1882 177.445 28.4229C177.261 28.6575 177.168 28.9911 177.168 29.4235Z" fill="white"></path></svg> 